<svg version="1.1" viewBox="0.0 0.0 600.0 371.0" fill="none" stroke="none" stroke-linecap="square" stroke-miterlimit="10" width="600" height="371" xmlns:xlink="http://www.w3.org/1999/xlink" xmlns="http://www.w3.org/2000/svg"><path fill="#ffffff" d="M0 0L600.0 0L600.0 371.0L0 371.0L0 0Z" fill-rule="nonzero"/><path stroke="#333333" stroke-width="1.0" stroke-linecap="butt" d="M77.5 88.5L77.5 300.5" fill-rule="nonzero"/><path stroke="#cccccc" stroke-width="1.0" stroke-linecap="butt" d="M149.5 88.5L149.5 300.5" fill-rule="nonzero"/><path stroke="#cccccc" stroke-width="1.0" stroke-linecap="butt" d="M221.5 88.5L221.5 300.5" fill-rule="nonzero"/><path stroke="#cccccc" stroke-width="1.0" stroke-linecap="butt" d="M293.5 88.5L293.5 300.5" fill-rule="nonzero"/><path stroke="#cccccc" stroke-width="1.0" stroke-linecap="butt" d="M365.5 88.5L365.5 300.5" fill-rule="nonzero"/><path stroke="#cccccc" stroke-width="1.0" stroke-linecap="butt" d="M437.5 88.5L437.5 300.5" fill-rule="nonzero"/><path stroke="#cccccc" stroke-width="1.0" stroke-linecap="butt" d="M509.5 88.5L509.5 300.5" fill-rule="nonzero"/><path stroke="#cccccc" stroke-width="1.0" stroke-linecap="butt" d="M581.5 88.5L581.5 300.5" fill-rule="nonzero"/><path stroke="#333333" stroke-width="1.0" stroke-linecap="butt" d="M77.5 300.5L581.5 300.5" fill-rule="nonzero"/><path stroke="#cccccc" stroke-width="1.0" stroke-linecap="butt" d="M77.5 265.5L581.5 265.5" fill-rule="nonzero"/><path stroke="#cccccc" stroke-width="1.0" stroke-linecap="butt" d="M77.5 229.5L581.5 229.5" fill-rule="nonzero"/><path stroke="#cccccc" stroke-width="1.0" stroke-linecap="butt" d="M77.5 194.5L581.5 194.5" fill-rule="nonzero"/><path stroke="#cccccc" stroke-width="1.0" stroke-linecap="butt" d="M77.5 159.5L581.5 159.5" fill-rule="nonzero"/><path stroke="#cccccc" stroke-width="1.0" stroke-linecap="butt" d="M77.5 123.5L581.5 123.5" fill-rule="nonzero"/><path stroke="#cccccc" stroke-width="1.0" stroke-linecap="butt" d="M77.5 88.5L581.5 88.5" fill-rule="nonzero"/><clipPath id="id_0"><path d="M77.55 88.28333L581.45 88.28333L581.45 300.45L77.55 300.45L77.55 88.28333Z" clip-rule="nonzero"/></clipPath><path stroke="#4285f4" stroke-width="2.0" stroke-linecap="butt" clip-path="url(#id_0)" d="M95.546425 285.05228L113.542854 282.94073L149.53572 266.76367L221.52142 233.65727L293.50714 201.40509L329.5 186.7772L365.49286 179.87772L437.47858 154.33873L509.4643 133.6841L581.45 115.53384" fill-rule="nonzero"/><path stroke="#ea4335" stroke-width="2.0" stroke-linecap="butt" clip-path="url(#id_0)" d="M95.546425 285.38794L113.542854 282.8025L149.53572 265.548L221.52142 232.31174L293.50714 200.02272L329.5 184.4809L365.49286 179.91443L437.47858 152.94395L509.4643 131.92175L581.45 111.55451" fill-rule="nonzero"/><path stroke="#fbbc04" stroke-width="2.0" stroke-linecap="butt" clip-path="url(#id_0)" d="M95.546425 285.28415L113.542854 283.53305L149.53572 266.93942L221.52142 235.18782L293.50714 203.02367L329.5 186.8723L365.49286 182.52124L437.47858 152.64946L509.4643 134.50189L581.45 107.2674" fill-rule="nonzero"/><path fill="#4285f4" clip-path="url(#id_0)" d="M100.046425 285.05228C100.046425 287.53757 98.03171 289.55228 95.546425 289.55228C93.06115 289.55228 91.046425 287.53757 91.046425 285.05228C91.046425 282.567 93.06115 280.55228 95.546425 280.55228C98.03171 280.55228 100.046425 282.567 100.046425 285.05228Z" fill-rule="nonzero"/><path fill="#4285f4" clip-path="url(#id_0)" d="M118.042854 282.94073C118.042854 285.426 116.02814 287.44073 113.542854 287.44073C111.05758 287.44073 109.042854 285.426 109.042854 282.94073C109.042854 280.45544 111.05758 278.44073 113.542854 278.44073C116.02814 278.44073 118.042854 280.45544 118.042854 282.94073Z" fill-rule="nonzero"/><path fill="#4285f4" clip-path="url(#id_0)" d="M154.03572 266.76367C154.03572 269.24896 152.021 271.26367 149.53572 271.26367C147.05043 271.26367 145.03572 269.24896 145.03572 266.76367C145.03572 264.27838 147.05043 262.26367 149.53572 262.26367C152.021 262.26367 154.03572 264.27838 154.03572 266.76367Z" fill-rule="nonzero"/><path fill="#4285f4" clip-path="url(#id_0)" d="M226.02142 233.65727C226.02142 236.14255 224.00671 238.15727 221.52142 238.15727C219.03615 238.15727 217.02142 236.14255 217.02142 233.65727C217.02142 231.172 219.03615 229.15727 221.52142 229.15727C224.00671 229.15727 226.02142 231.172 226.02142 233.65727Z" fill-rule="nonzero"/><path fill="#4285f4" clip-path="url(#id_0)" d="M298.00714 201.40509C298.00714 203.89038 295.99243 205.90509 293.50714 205.90509C291.02185 205.90509 289.00714 203.89038 289.00714 201.40509C289.00714 198.91982 291.02185 196.90509 293.50714 196.90509C295.99243 196.90509 298.00714 198.91982 298.00714 201.40509Z" fill-rule="nonzero"/><path fill="#4285f4" clip-path="url(#id_0)" d="M334.0 186.7772C334.0 189.2625 331.9853 191.2772 329.5 191.2772C327.0147 191.2772 325.0 189.2625 325.0 186.7772C325.0 184.29193 327.0147 182.2772 329.5 182.2772C331.9853 182.2772 334.0 184.29193 334.0 186.7772Z" fill-rule="nonzero"/><path fill="#4285f4" clip-path="url(#id_0)" d="M369.99286 179.87772C369.99286 182.36299 367.97815 184.37772 365.49286 184.37772C363.00757 184.37772 360.99286 182.36299 360.99286 179.87772C360.99286 177.39243 363.00757 175.37772 365.49286 175.37772C367.97815 175.37772 369.99286 177.39243 369.99286 179.87772Z" fill-rule="nonzero"/><path fill="#4285f4" clip-path="url(#id_0)" d="M441.97858 154.33873C441.97858 156.824 439.96387 158.83873 437.47858 158.83873C434.9933 158.83873 432.97858 156.824 432.97858 154.33873C432.97858 151.85344 434.9933 149.83873 437.47858 149.83873C439.96387 149.83873 441.97858 151.85344 441.97858 154.33873Z" fill-rule="nonzero"/><path fill="#4285f4" clip-path="url(#id_0)" d="M513.9643 133.6841C513.9643 136.16937 511.94955 138.1841 509.4643 138.1841C506.979 138.1841 504.9643 136.16937 504.9643 133.6841C504.9643 131.1988 506.979 129.1841 509.4643 129.1841C511.94955 129.1841 513.9643 131.1988 513.9643 133.6841Z" fill-rule="nonzero"/><path fill="#4285f4" clip-path="url(#id_0)" d="M585.95 115.53384C585.95 118.01912 583.9353 120.03384 581.45 120.03384C578.9647 120.03384 576.95 118.01912 576.95 115.53384C576.95 113.04855 578.9647 111.03384 581.45 111.03384C583.9353 111.03384 585.95 113.04855 585.95 115.53384Z" fill-rule="nonzero"/><path fill="#ea4335" clip-path="url(#id_0)" d="M100.046425 285.38794C100.046425 287.8732 98.03171 289.88794 95.546425 289.88794C93.06115 289.88794 91.046425 287.8732 91.046425 285.38794C91.046425 282.90265 93.06115 280.88794 95.546425 280.88794C98.03171 280.88794 100.046425 282.90265 100.046425 285.38794Z" fill-rule="nonzero"/><path fill="#ea4335" clip-path="url(#id_0)" d="M118.042854 282.8025C118.042854 285.28775 116.02814 287.3025 113.542854 287.3025C111.05758 287.3025 109.042854 285.28775 109.042854 282.8025C109.042854 280.3172 111.05758 278.3025 113.542854 278.3025C116.02814 278.3025 118.042854 280.3172 118.042854 282.8025Z" fill-rule="nonzero"/><path fill="#ea4335" clip-path="url(#id_0)" d="M154.03572 265.548C154.03572 268.0333 152.021 270.048 149.53572 270.048C147.05043 270.048 145.03572 268.0333 145.03572 265.548C145.03572 263.06274 147.05043 261.048 149.53572 261.048C152.021 261.048 154.03572 263.06274 154.03572 265.548Z" fill-rule="nonzero"/><path fill="#ea4335" clip-path="url(#id_0)" d="M226.02142 232.31174C226.02142 234.79701 224.00671 236.81174 221.52142 236.81174C219.03615 236.81174 217.02142 234.79701 217.02142 232.31174C217.02142 229.82645 219.03615 227.81174 221.52142 227.81174C224.00671 227.81174 226.02142 229.82645 226.02142 232.31174Z" fill-rule="nonzero"/><path fill="#ea4335" clip-path="url(#id_0)" d="M298.00714 200.02272C298.00714 202.50801 295.99243 204.52272 293.50714 204.52272C291.02185 204.52272 289.00714 202.50801 289.00714 200.02272C289.00714 197.53745 291.02185 195.52272 293.50714 195.52272C295.99243 195.52272 298.00714 197.53745 298.00714 200.02272Z" fill-rule="nonzero"/><path fill="#ea4335" clip-path="url(#id_0)" d="M334.0 184.4809C334.0 186.96619 331.9853 188.9809 329.5 188.9809C327.0147 188.9809 325.0 186.96619 325.0 184.4809C325.0 181.99562 327.0147 179.9809 329.5 179.9809C331.9853 179.9809 334.0 181.99562 334.0 184.4809Z" fill-rule="nonzero"/><path fill="#ea4335" clip-path="url(#id_0)" d="M369.99286 179.91443C369.99286 182.39972 367.97815 184.41443 365.49286 184.41443C363.00757 184.41443 360.99286 182.39972 360.99286 179.91443C360.99286 177.42915 363.00757 175.41443 365.49286 175.41443C367.97815 175.41443 369.99286 177.42915 369.99286 179.91443Z" fill-rule="nonzero"/><path fill="#ea4335" clip-path="url(#id_0)" d="M441.97858 152.94395C441.97858 155.42923 439.96387 157.44395 437.47858 157.44395C434.9933 157.44395 432.97858 155.42923 432.97858 152.94395C432.97858 150.45866 434.9933 148.44395 437.47858 148.44395C439.96387 148.44395 441.97858 150.45866 441.97858 152.94395Z" fill-rule="nonzero"/><path fill="#ea4335" clip-path="url(#id_0)" d="M513.9643 131.92175C513.9643 134.40703 511.94955 136.42175 509.4643 136.42175C506.979 136.42175 504.9643 134.40703 504.9643 131.92175C504.9643 129.43646 506.979 127.42175 509.4643 127.42175C511.94955 127.42175 513.9643 129.43646 513.9643 131.92175Z" fill-rule="nonzero"/><path fill="#ea4335" clip-path="url(#id_0)" d="M585.95 111.55451C585.95 114.039795 583.9353 116.05451 581.45 116.05451C578.9647 116.05451 576.95 114.039795 576.95 111.55451C576.95 109.06923 578.9647 107.05451 581.45 107.05451C583.9353 107.05451 585.95 109.06923 585.95 111.55451Z" fill-rule="nonzero"/><path fill="#fbbc04" clip-path="url(#id_0)" d="M100.046425 285.28415C100.046425 287.76944 98.03171 289.78415 95.546425 289.78415C93.06115 289.78415 91.046425 287.76944 91.046425 285.28415C91.046425 282.79886 93.06115 280.78415 95.546425 280.78415C98.03171 280.78415 100.046425 282.79886 100.046425 285.28415Z" fill-rule="nonzero"/><path fill="#fbbc04" clip-path="url(#id_0)" d="M118.042854 283.53305C118.042854 286.01834 116.02814 288.03305 113.542854 288.03305C111.05758 288.03305 109.042854 286.01834 109.042854 283.53305C109.042854 281.04776 111.05758 279.03305 113.542854 279.03305C116.02814 279.03305 118.042854 281.04776 118.042854 283.53305Z" fill-rule="nonzero"/><path fill="#fbbc04" clip-path="url(#id_0)" d="M154.03572 266.93942C154.03572 269.4247 152.021 271.43942 149.53572 271.43942C147.05043 271.43942 145.03572 269.4247 145.03572 266.93942C145.03572 264.45416 147.05043 262.43942 149.53572 262.43942C152.021 262.43942 154.03572 264.45416 154.03572 266.93942Z" fill-rule="nonzero"/><path fill="#fbbc04" clip-path="url(#id_0)" d="M226.02142 235.18782C226.02142 237.67311 224.00671 239.68782 221.52142 239.68782C219.03615 239.68782 217.02142 237.67311 217.02142 235.18782C217.02142 232.70255 219.03615 230.68782 221.52142 230.68782C224.00671 230.68782 226.02142 232.70255 226.02142 235.18782Z" fill-rule="nonzero"/><path fill="#fbbc04" clip-path="url(#id_0)" d="M298.00714 203.02367C298.00714 205.50896 295.99243 207.52367 293.50714 207.52367C291.02185 207.52367 289.00714 205.50896 289.00714 203.02367C289.00714 200.53839 291.02185 198.52367 293.50714 198.52367C295.99243 198.52367 298.00714 200.53839 298.00714 203.02367Z" fill-rule="nonzero"/><path fill="#fbbc04" clip-path="url(#id_0)" d="M334.0 186.8723C334.0 189.35757 331.9853 191.3723 329.5 191.3723C327.0147 191.3723 325.0 189.35757 325.0 186.8723C325.0 184.38701 327.0147 182.3723 329.5 182.3723C331.9853 182.3723 334.0 184.38701 334.0 186.8723Z" fill-rule="nonzero"/><path fill="#fbbc04" clip-path="url(#id_0)" d="M369.99286 182.52124C369.99286 185.00653 367.97815 187.02124 365.49286 187.02124C363.00757 187.02124 360.99286 185.00653 360.99286 182.52124C360.99286 180.03596 363.00757 178.02124 365.49286 178.02124C367.97815 178.02124 369.99286 180.03596 369.99286 182.52124Z" fill-rule="nonzero"/><path fill="#fbbc04" clip-path="url(#id_0)" d="M441.97858 152.64946C441.97858 155.13474 439.96387 157.14946 437.47858 157.14946C434.9933 157.14946 432.97858 155.13474 432.97858 152.64946C432.97858 150.16418 434.9933 148.14946 437.47858 148.14946C439.96387 148.14946 441.97858 150.16418 441.97858 152.64946Z" fill-rule="nonzero"/><path fill="#fbbc04" clip-path="url(#id_0)" d="M513.9643 134.50189C513.9643 136.98717 511.94955 139.00189 509.4643 139.00189C506.979 139.00189 504.9643 136.98717 504.9643 134.50189C504.9643 132.0166 506.979 130.00189 509.4643 130.00189C511.94955 130.00189 513.9643 132.0166 513.9643 134.50189Z" fill-rule="nonzero"/><path fill="#fbbc04" clip-path="url(#id_0)" d="M585.95 107.2674C585.95 109.752686 583.9353 111.7674 581.45 111.7674C578.9647 111.7674 576.95 109.752686 576.95 107.2674C576.95 104.78212 578.9647 102.7674 581.45 102.7674C583.9353 102.7674 585.95 104.78212 585.95 107.2674Z" fill-rule="nonzero"/><path fill="#000000" d="M278.92188 349.45L278.92188 340.85626L280.07812 340.85626L284.59375 347.60626L284.59375 340.85626L285.6875 340.85626L285.6875 349.45L284.51562 349.45L280.0 342.7L280.0 349.45L278.92188 349.45ZM291.875 349.45L291.875 348.52814Q291.14062 349.59064 289.89062 349.59064Q289.34375 349.59064 288.85938 349.3875Q288.39062 349.16876 288.15625 348.85626Q287.92188 348.52814 287.82812 348.0594Q287.76562 347.7625 287.76562 347.075L287.76562 343.23126L288.82812 343.23126L288.82812 346.6844Q288.82812 347.4969 288.89062 347.79376Q288.98438 348.2 289.29688 348.45Q289.625 348.6844 290.10938 348.6844Q290.57812 348.6844 290.98438 348.45Q291.40625 348.2 291.57812 347.77814Q291.76562 347.35626 291.76562 346.5594L291.76562 343.23126L292.8125 343.23126L292.8125 349.45L291.875 349.45ZM294.79688 349.45L294.79688 343.23126L295.73438 343.23126L295.73438 344.10626Q296.03125 343.6375 296.51562 343.3719Q297.0 343.09064 297.625 343.09064Q298.3125 343.09064 298.75 343.3719Q299.20312 343.65314 299.375 344.16876Q300.125 343.09064 301.29688 343.09064Q302.23438 343.09064 302.71875 343.60626Q303.21875 344.10626 303.21875 345.1844L303.21875 349.45L302.17188 349.45L302.17188 345.52814Q302.17188 344.90314 302.0625 344.6219Q301.96875 344.34064 301.70312 344.16876Q301.4375 343.9969 301.0625 343.9969Q300.40625 343.9969 299.96875 344.4344Q299.54688 344.8719 299.54688 345.84064L299.54688 349.45L298.48438 349.45L298.48438 345.40314Q298.48438 344.7 298.21875 344.35626Q297.96875 343.9969 297.39062 343.9969Q296.9375 343.9969 296.5625 344.23126Q296.1875 344.46564 296.01562 344.91876Q295.84375 345.3719 295.84375 346.21564L295.84375 349.45L294.79688 349.45ZM306.76562 349.45L305.78125 349.45L305.78125 340.85626L306.84375 340.85626L306.84375 343.91876Q307.51562 343.09064 308.54688 343.09064Q309.125 343.09064 309.625 343.325Q310.14062 343.54376 310.46875 343.96564Q310.8125 344.3875 311.0 344.98126Q311.1875 345.575 311.1875 346.2469Q311.1875 347.84064 310.39062 348.71564Q309.59375 349.59064 308.5 349.59064Q307.39062 349.59064 306.76562 348.66876L306.76562 349.45ZM306.75 346.29376Q306.75 347.40314 307.0625 347.90314Q307.5625 348.71564 308.40625 348.71564Q309.09375 348.71564 309.59375 348.1219Q310.10938 347.52814 310.10938 346.325Q310.10938 345.10626 309.625 344.52814Q309.14062 343.95 308.45312 343.95Q307.76562 343.95 307.25 344.5594Q306.75 345.15314 306.75 346.29376ZM317.04688 347.45L318.14062 347.575Q317.89062 348.52814 317.1875 349.0594Q316.48438 349.59064 315.40625 349.59064Q314.04688 349.59064 313.23438 348.7469Q312.4375 347.90314 312.4375 346.3875Q312.4375 344.825 313.25 343.96564Q314.0625 343.09064 315.34375 343.09064Q316.59375 343.09064 317.375 343.9344Q318.17188 344.77814 318.17188 346.325Q318.17188 346.41876 318.17188 346.60626L313.53125 346.60626Q313.59375 347.6375 314.10938 348.1844Q314.625 348.71564 315.40625 348.71564Q315.98438 348.71564 316.39062 348.41876Q316.8125 348.10626 317.04688 347.45ZM313.59375 345.7469L317.0625 345.7469Q317.0 344.95 316.67188 344.5594Q316.15625 343.95 315.35938 343.95Q314.625 343.95 314.125 344.4344Q313.64062 344.91876 313.59375 345.7469ZM319.78125 349.45L319.78125 343.23126L320.73438 343.23126L320.73438 344.16876Q321.09375 343.5125 321.39062 343.3094Q321.70312 343.09064 322.07812 343.09064Q322.60938 343.09064 323.15625 343.41876L322.79688 344.40314Q322.40625 344.16876 322.03125 344.16876Q321.67188 344.16876 321.39062 344.3875Q321.125 344.59064 321.01562 344.96564Q320.82812 345.52814 320.82812 346.1844L320.82812 349.45L319.78125 349.45ZM326.40625 346.34064Q326.40625 344.60626 327.35938 343.77814Q328.15625 343.09064 329.3125 343.09064Q330.59375 343.09064 331.40625 343.9344Q332.23438 344.7625 332.23438 346.2469Q332.23438 347.45 331.875 348.1375Q331.51562 348.825 330.8125 349.21564Q330.125 349.59064 329.3125 349.59064Q328.01562 349.59064 327.20312 348.7625Q326.40625 347.91876 326.40625 346.34064ZM327.48438 346.34064Q327.48438 347.52814 328.0 348.1219Q328.53125 348.71564 329.3125 348.71564Q330.10938 348.71564 330.625 348.1219Q331.14062 347.52814 331.14062 346.3094Q331.14062 345.15314 330.60938 344.5594Q330.09375 343.96564 329.3125 343.96564Q328.53125 343.96564 328.0 344.5594Q327.48438 345.1375 327.48438 346.34064ZM334.04688 349.45L334.04688 344.04376L333.10938 344.04376L333.10938 343.23126L334.04688 343.23126L334.04688 342.5594Q334.04688 341.9344 334.15625 341.6375Q334.3125 341.21564 334.6875 340.96564Q335.07812 340.71564 335.76562 340.71564Q336.21875 340.71564 336.75 340.825L336.59375 341.73126Q336.26562 341.6844 335.96875 341.6844Q335.48438 341.6844 335.28125 341.8875Q335.09375 342.09064 335.09375 342.65314L335.09375 343.23126L336.3125 343.23126L336.3125 344.04376L335.09375 344.04376L335.09375 349.45L334.04688 349.45ZM342.09375 348.5125L342.25 349.4344Q341.79688 349.52814 341.45312 349.52814Q340.875 349.52814 340.5625 349.35626Q340.25 349.16876 340.10938 348.8719Q339.98438 348.575 339.98438 347.6219L339.98438 344.04376L339.21875 344.04376L339.21875 343.23126L339.98438 343.23126L339.98438 341.6844L341.03125 341.0594L341.03125 343.23126L342.09375 343.23126L342.09375 344.04376L341.03125 344.04376L341.03125 347.6844Q341.03125 348.1375 341.07812 348.2625Q341.14062 348.3875 341.26562 348.46564Q341.39062 348.54376 341.625 348.54376Q341.8125 348.54376 342.09375 348.5125ZM342.79688 349.45L342.79688 340.85626L343.84375 340.85626L343.84375 343.9344Q344.57812 343.09064 345.70312 343.09064Q346.40625 343.09064 346.90625 343.3719Q347.42188 343.6375 347.64062 344.1219Q347.85938 344.59064 347.85938 345.5125L347.85938 349.45L346.8125 349.45L346.8125 345.5125Q346.8125 344.71564 346.46875 344.35626Q346.125 343.9969 345.5 343.9969Q345.03125 343.9969 344.60938 344.2469Q344.20312 344.48126 344.01562 344.90314Q343.84375 345.3094 343.84375 346.04376L343.84375 349.45L342.79688 349.45ZM349.78125 349.45L349.78125 343.23126L350.73438 343.23126L350.73438 344.16876Q351.09375 343.5125 351.39062 343.3094Q351.70312 343.09064 352.07812 343.09064Q352.60938 343.09064 353.15625 343.41876L352.79688 344.40314Q352.40625 344.16876 352.03125 344.16876Q351.67188 344.16876 351.39062 344.3875Q351.125 344.59064 351.01562 344.96564Q350.82812 345.52814 350.82812 346.1844L350.82812 349.45L349.78125 349.45ZM358.04688 347.45L359.14062 347.575Q358.89062 348.52814 358.1875 349.0594Q357.48438 349.59064 356.40625 349.59064Q355.04688 349.59064 354.23438 348.7469Q353.4375 347.90314 353.4375 346.3875Q353.4375 344.825 354.25 343.96564Q355.0625 343.09064 356.34375 343.09064Q357.59375 343.09064 358.375 343.9344Q359.17188 344.77814 359.17188 346.325Q359.17188 346.41876 359.17188 346.60626L354.53125 346.60626Q354.59375 347.6375 355.10938 348.1844Q355.625 348.71564 356.40625 348.71564Q356.98438 348.71564 357.39062 348.41876Q357.8125 348.10626 358.04688 347.45ZM354.59375 345.7469L358.0625 345.7469Q358.0 344.95 357.67188 344.5594Q357.15625 343.95 356.35938 343.95Q355.625 343.95 355.125 344.4344Q354.64062 344.91876 354.59375 345.7469ZM364.85938 348.6844Q364.26562 349.1844 363.71875 349.3875Q363.1875 349.59064 362.5625 349.59064Q361.53125 349.59064 360.98438 349.09064Q360.4375 348.59064 360.4375 347.8094Q360.4375 347.35626 360.64062 346.98126Q360.84375 346.59064 361.1875 346.3719Q361.53125 346.1375 361.95312 346.02814Q362.25 345.9344 362.89062 345.85626Q364.15625 345.71564 364.76562 345.4969Q364.76562 345.27814 364.76562 345.23126Q364.76562 344.575 364.46875 344.3094Q364.0625 343.96564 363.26562 343.96564Q362.53125 343.96564 362.17188 344.23126Q361.8125 344.48126 361.64062 345.1375L360.60938 344.9969Q360.75 344.34064 361.07812 343.9344Q361.40625 343.52814 362.01562 343.3094Q362.625 343.09064 363.42188 343.09064Q364.21875 343.09064 364.71875 343.27814Q365.21875 343.46564 365.45312 343.7469Q365.6875 344.02814 365.78125 344.46564Q365.82812 344.73126 365.82812 345.4344L365.82812 346.84064Q365.82812 348.3094 365.89062 348.7Q365.96875 349.09064 366.17188 349.45L365.0625 349.45Q364.90625 349.1219 364.85938 348.6844ZM364.76562 346.325Q364.1875 346.5594 363.04688 346.73126Q362.39062 346.825 362.125 346.95Q361.85938 347.0594 361.70312 347.27814Q361.5625 347.4969 361.5625 347.77814Q361.5625 348.2 361.875 348.48126Q362.20312 348.7625 362.8125 348.7625Q363.42188 348.7625 363.89062 348.4969Q364.375 348.23126 364.59375 347.7625Q364.76562 347.40314 364.76562 346.71564L364.76562 346.325ZM371.82812 349.45L371.82812 348.66876Q371.23438 349.59064 370.09375 349.59064Q369.34375 349.59064 368.71875 349.1844Q368.09375 348.7625 367.75 348.02814Q367.40625 347.29376 367.40625 346.34064Q367.40625 345.41876 367.71875 344.65314Q368.03125 343.8875 368.65625 343.4969Q369.28125 343.09064 370.04688 343.09064Q370.60938 343.09064 371.04688 343.325Q371.48438 343.5594 371.76562 343.9344L371.76562 340.85626L372.8125 340.85626L372.8125 349.45L371.82812 349.45ZM368.5 346.34064Q368.5 347.54376 369.0 348.1375Q369.5 348.71564 370.1875 348.71564Q370.875 348.71564 371.35938 348.15314Q371.84375 347.59064 371.84375 346.4344Q371.84375 345.15314 371.34375 344.5594Q370.85938 343.96564 370.14062 343.96564Q369.4375 343.96564 368.96875 344.54376Q368.5 345.10626 368.5 346.34064ZM374.375 347.59064L375.40625 347.4344Q375.5 348.0594 375.89062 348.3875Q376.29688 348.71564 377.03125 348.71564Q377.75 348.71564 378.09375 348.4344Q378.45312 348.1375 378.45312 347.73126Q378.45312 347.3719 378.14062 347.16876Q377.92188 347.02814 377.0625 346.8094Q375.90625 346.5125 375.45312 346.3094Q375.01562 346.09064 374.78125 345.71564Q374.54688 345.34064 374.54688 344.8719Q374.54688 344.46564 374.73438 344.10626Q374.92188 343.7469 375.25 343.5125Q375.5 343.34064 375.92188 343.21564Q376.34375 343.09064 376.84375 343.09064Q377.5625 343.09064 378.10938 343.3094Q378.67188 343.5125 378.9375 343.8719Q379.20312 344.23126 379.29688 344.825L378.26562 344.96564Q378.20312 344.4969 377.85938 344.23126Q377.53125 343.95 376.90625 343.95Q376.1875 343.95 375.875 344.2Q375.5625 344.4344 375.5625 344.7625Q375.5625 344.96564 375.6875 345.1219Q375.82812 345.29376 376.09375 345.40314Q376.25 345.46564 377.03125 345.66876Q378.15625 345.98126 378.59375 346.16876Q379.03125 346.35626 379.28125 346.71564Q379.53125 347.075 379.53125 347.6219Q379.53125 348.15314 379.21875 348.6219Q378.92188 349.075 378.34375 349.34064Q377.76562 349.59064 377.03125 349.59064Q375.8125 349.59064 375.17188 349.09064Q374.54688 348.575 374.375 347.59064Z" fill-rule="nonzero"/><path fill="#000000" d="M26.784388 225.3198L26.690638 224.2573Q27.346888 224.17917 27.753138 223.89792Q28.159388 223.61667 28.425013 223.03854Q28.675013 222.4448 28.675013 221.71042Q28.675013 221.0698 28.487513 220.5698Q28.284388 220.0698 27.956263 219.83542Q27.612513 219.58542 27.221888 219.58542Q26.815638 219.58542 26.518763 219.8198Q26.206263 220.05417 26.003138 220.58542Q25.862513 220.9448 25.581263 222.1323Q25.300013 223.30417 25.050013 223.77292Q24.721888 224.39792 24.253138 224.6948Q23.768763 224.99167 23.175013 224.99167Q22.534388 224.99167 21.971888 224.6323Q21.393763 224.2573 21.112513 223.55417Q20.815638 222.83542 20.815638 221.97604Q20.815638 221.02292 21.128138 220.28854Q21.425013 219.55417 22.034388 219.16354Q22.628138 218.77292 23.378138 218.74167L23.456263 219.83542Q22.643763 219.92917 22.237513 220.4448Q21.815638 220.9448 21.815638 221.92917Q21.815638 222.96042 22.190638 223.42917Q22.565638 223.89792 23.096888 223.89792Q23.565638 223.89792 23.862513 223.5698Q24.159388 223.24167 24.471888 221.86667Q24.784388 220.47604 25.018763 219.96042Q25.378138 219.21042 25.909388 218.85104Q26.425013 218.49167 27.128138 218.49167Q27.815638 218.49167 28.425013 218.8823Q29.018763 219.27292 29.362513 220.0073Q29.690638 220.74167 29.690638 221.66354Q29.690638 222.83542 29.362513 223.6323Q29.018763 224.41354 28.331263 224.86667Q27.643763 225.30417 26.784388 225.3198ZM31.940638 217.0698L23.331263 217.0698L23.331263 216.11667L24.128138 216.11667Q23.659388 215.77292 23.425013 215.35104Q23.190638 214.91354 23.190638 214.30417Q23.190638 213.5073 23.596888 212.89792Q24.003138 212.28854 24.753138 211.99167Q25.503138 211.67917 26.393763 211.67917Q27.346888 211.67917 28.112513 212.02292Q28.878138 212.35104 29.284388 213.0073Q29.690638 213.66354 29.690638 214.3823Q29.690638 214.91354 29.471888 215.33542Q29.237513 215.7573 28.909388 216.02292L31.940638 216.02292L31.940638 217.0698ZM26.471888 216.11667Q27.675013 216.11667 28.253138 215.6323Q28.815638 215.14792 28.815638 214.46042Q28.815638 213.7573 28.221888 213.2573Q27.628138 212.7573 26.378138 212.7573Q25.190638 212.7573 24.612513 213.24167Q24.018763 213.72604 24.018763 214.41354Q24.018763 215.08542 24.643763 215.60104Q25.268763 216.11667 26.471888 216.11667ZM27.550013 205.8198L27.675013 204.72604Q28.628138 204.97604 29.159388 205.67917Q29.690638 206.3823 29.690638 207.46042Q29.690638 208.8198 28.846888 209.6323Q28.003138 210.42917 26.487513 210.42917Q24.925013 210.42917 24.065638 209.61667Q23.190638 208.80417 23.190638 207.52292Q23.190638 206.27292 24.034388 205.49167Q24.878138 204.6948 26.425013 204.6948Q26.518763 204.6948 26.706263 204.6948L26.706263 209.33542Q27.737513 209.27292 28.284388 208.7573Q28.815638 208.24167 28.815638 207.46042Q28.815638 206.8823 28.518763 206.47604Q28.206263 206.05417 27.550013 205.8198ZM25.846888 209.27292L25.846888 205.80417Q25.050013 205.86667 24.659388 206.1948Q24.050013 206.71042 24.050013 207.5073Q24.050013 208.24167 24.534388 208.74167Q25.018763 209.22604 25.846888 209.27292ZM27.550013 198.8198L27.675013 197.72604Q28.628138 197.97604 29.159388 198.67917Q29.690638 199.3823 29.690638 200.46042Q29.690638 201.8198 28.846888 202.6323Q28.003138 203.42917 26.487513 203.42917Q24.925013 203.42917 24.065638 202.61667Q23.190638 201.80417 23.190638 200.52292Q23.190638 199.27292 24.034388 198.49167Q24.878138 197.6948 26.425013 197.6948Q26.518763 197.6948 26.706263 197.6948L26.706263 202.33542Q27.737513 202.27292 28.284388 201.7573Q28.815638 201.24167 28.815638 200.46042Q28.815638 199.8823 28.518763 199.47604Q28.206263 199.05417 27.550013 198.8198ZM25.846888 202.27292L25.846888 198.80417Q25.050013 198.86667 24.659388 199.1948Q24.050013 199.71042 24.050013 200.5073Q24.050013 201.24167 24.534388 201.74167Q25.018763 202.22604 25.846888 202.27292ZM29.550013 192.03854L28.768763 192.03854Q29.690638 192.6323 29.690638 193.77292Q29.690638 194.52292 29.284388 195.14792Q28.862513 195.77292 28.128138 196.11667Q27.393763 196.46042 26.440638 196.46042Q25.518763 196.46042 24.753138 196.14792Q23.987513 195.83542 23.596888 195.21042Q23.190638 194.58542 23.190638 193.8198Q23.190638 193.2573 23.425013 192.8198Q23.659388 192.3823 24.034388 192.10104L20.956263 192.10104L20.956263 191.05417L29.550013 191.05417L29.550013 192.03854ZM26.440638 195.36667Q27.643763 195.36667 28.237513 194.86667Q28.815638 194.36667 28.815638 193.67917Q28.815638 192.99167 28.253138 192.5073Q27.690638 192.02292 26.534388 192.02292Q25.253138 192.02292 24.659388 192.52292Q24.065638 193.0073 24.065638 193.72604Q24.065638 194.42917 24.643763 194.89792Q25.206263 195.36667 26.440638 195.36667ZM29.550013 184.99167L28.628138 184.99167Q29.690638 185.72604 29.690638 186.97604Q29.690638 187.52292 29.487513 188.0073Q29.268763 188.47604 28.956263 188.71042Q28.628138 188.9448 28.159388 189.03854Q27.862513 189.10104 27.175013 189.10104L23.331263 189.10104L23.331263 188.03854L26.784388 188.03854Q27.596888 188.03854 27.893763 187.97604Q28.300013 187.8823 28.550013 187.5698Q28.784388 187.24167 28.784388 186.7573Q28.784388 186.28854 28.550013 185.8823Q28.300013 185.46042 27.878138 185.28854Q27.456263 185.10104 26.659388 185.10104L23.331263 185.10104L23.331263 184.05417L29.550013 184.05417L29.550013 184.99167ZM31.940638 182.0698L23.331263 182.0698L23.331263 181.11667L24.128138 181.11667Q23.659388 180.77292 23.425013 180.35104Q23.190638 179.91354 23.190638 179.30417Q23.190638 178.5073 23.596888 177.89792Q24.003138 177.28854 24.753138 176.99167Q25.503138 176.67917 26.393763 176.67917Q27.346888 176.67917 28.112513 177.02292Q28.878138 177.35104 29.284388 178.0073Q29.690638 178.66354 29.690638 179.3823Q29.690638 179.91354 29.471888 180.33542Q29.237513 180.7573 28.909388 181.02292L31.940638 181.02292L31.940638 182.0698ZM26.471888 181.11667Q27.675013 181.11667 28.253138 180.6323Q28.815638 180.14792 28.815638 179.46042Q28.815638 178.7573 28.221888 178.2573Q27.628138 177.7573 26.378138 177.7573Q25.190638 177.7573 24.612513 178.24167Q24.018763 178.72604 24.018763 179.41354Q24.018763 180.08542 24.643763 180.60104Q25.268763 181.11667 26.471888 181.11667Z" fill-rule="nonzero"/><path fill="#000000" d="M65.05 300.21564Q65.05 298.6844 65.3625 297.7625Q65.675 296.825 66.28438 296.325Q66.90938 295.825 67.84688 295.825Q68.53438 295.825 69.05 296.10626Q69.58125 296.3875 69.925 296.91876Q70.26875 297.4344 70.45625 298.1844Q70.64375 298.9344 70.64375 300.21564Q70.64375 301.73126 70.33125 302.65314Q70.03438 303.575 69.40938 304.09064Q68.8 304.59064 67.84688 304.59064Q66.6125 304.59064 65.89375 303.7Q65.05 302.6375 65.05 300.21564ZM66.12813 300.21564Q66.12813 302.325 66.62813 303.02814Q67.12813 303.73126 67.84688 303.73126Q68.58125 303.73126 69.06563 303.02814Q69.56563 302.325 69.56563 300.21564Q69.56563 298.09064 69.06563 297.40314Q68.58125 296.7 67.83125 296.7Q67.1125 296.7 66.675 297.3094Q66.12813 298.09064 66.12813 300.21564Z" fill-rule="nonzero"/><path fill="#000000" d="M70.59688 268.07327L70.59688 269.0889L64.90938 269.0889Q64.90938 268.7139 65.03438 268.35452Q65.25313 267.7764 65.72188 267.2139Q66.20625 266.6514 67.1125 265.91702Q68.51875 264.76077 69.00313 264.0889Q69.50313 263.41702 69.50313 262.82327Q69.50313 262.19827 69.05 261.7764Q68.59688 261.3389 67.87813 261.3389Q67.1125 261.3389 66.65938 261.79202Q66.20625 262.24515 66.19063 263.05765L65.1125 262.94827Q65.22188 261.72952 65.94063 261.10452Q66.675 260.4639 67.90938 260.4639Q69.14375 260.4639 69.8625 261.1514Q70.58125 261.8389 70.58125 262.85452Q70.58125 263.37015 70.3625 263.87015Q70.15938 264.35452 69.65938 264.91702Q69.175 265.4639 68.05 266.41702Q67.09688 267.2139 66.81563 267.51077Q66.55 267.79202 66.37813 268.07327L70.59688 268.07327Z" fill-rule="nonzero"/><path fill="#000000" d="M68.425 233.72778L68.425 231.66528L64.70625 231.66528L64.70625 230.69653L68.62813 225.13403L69.4875 225.13403L69.4875 230.69653L70.64375 230.69653L70.64375 231.66528L69.4875 231.66528L69.4875 233.72778L68.425 233.72778ZM68.425 230.69653L68.425 226.83716L65.7375 230.69653L68.425 230.69653Z" fill-rule="nonzero"/><path fill="#000000" d="M70.51875 191.8823L69.47188 191.96042Q69.33125 191.33542 69.08125 191.05417Q68.64375 190.60104 68.01875 190.60104Q67.51875 190.60104 67.12813 190.8823Q66.64375 191.2573 66.34688 191.96042Q66.06563 192.64792 66.05 193.92917Q66.425 193.35104 66.97188 193.0698Q67.53438 192.78854 68.14375 192.78854Q69.19063 192.78854 69.925 193.5698Q70.675 194.35104 70.675 195.5698Q70.675 196.3823 70.31563 197.08542Q69.97188 197.77292 69.3625 198.14792Q68.75313 198.5073 67.9875 198.5073Q66.65938 198.5073 65.83125 197.53854Q65.00313 196.5698 65.00313 194.35104Q65.00313 191.85104 65.925 190.72604Q66.72188 189.74167 68.08125 189.74167Q69.09688 189.74167 69.7375 190.3198Q70.39375 190.8823 70.51875 191.8823ZM66.22188 195.58542Q66.22188 196.1323 66.44063 196.6323Q66.675 197.11667 67.08125 197.3823Q67.50313 197.64792 67.97188 197.64792Q68.62813 197.64792 69.1125 197.11667Q69.59688 196.5698 69.59688 195.64792Q69.59688 194.7573 69.1125 194.24167Q68.64375 193.72604 67.925 193.72604Q67.20625 193.72604 66.70625 194.24167Q66.22188 194.7573 66.22188 195.58542Z" fill-rule="nonzero"/><path fill="#000000" d="M66.675 158.3493Q66.01875 158.0993 65.69063 157.6618Q65.37813 157.20868 65.37813 156.5993Q65.37813 155.6618 66.05 155.02118Q66.7375 154.38055 67.84688 154.38055Q68.97188 154.38055 69.65938 155.0368Q70.34688 155.69305 70.34688 156.63055Q70.34688 157.2243 70.03438 157.6618Q69.72188 158.0993 69.08125 158.3493Q69.87813 158.5993 70.28438 159.17743Q70.69063 159.75555 70.69063 160.55243Q70.69063 161.64618 69.90938 162.39618Q69.14375 163.14618 67.8625 163.14618Q66.59688 163.14618 65.81563 162.39618Q65.03438 161.64618 65.03438 160.52118Q65.03438 159.67743 65.45625 159.11493Q65.89375 158.55243 66.675 158.3493ZM66.45625 156.55243Q66.45625 157.1618 66.84688 157.55243Q67.25313 157.94305 67.87813 157.94305Q68.4875 157.94305 68.87813 157.56805Q69.26875 157.17743 69.26875 156.61493Q69.26875 156.0368 68.8625 155.64618Q68.45625 155.23993 67.8625 155.23993Q67.25313 155.23993 66.84688 155.63055Q66.45625 156.02118 66.45625 156.55243ZM66.12813 160.52118Q66.12813 160.9743 66.33125 161.39618Q66.55 161.81805 66.97188 162.05243Q67.39375 162.2868 67.87813 162.2868Q68.62813 162.2868 69.1125 161.80243Q69.6125 161.31805 69.6125 160.56805Q69.6125 159.80243 69.1125 159.30243Q68.6125 158.80243 67.84688 158.80243Q67.09688 158.80243 66.6125 159.30243Q66.12813 159.7868 66.12813 160.52118Z" fill-rule="nonzero"/><path fill="#000000" d="M62.01875 127.64445L60.971874 127.64445L60.971874 120.9257Q60.58125 121.28507 59.95625 121.66007Q59.346874 122.01945 58.8625 122.19132L58.8625 121.1757Q59.7375 120.75382 60.39375 120.1757Q61.065624 119.58195 61.346874 119.01945L62.01875 119.01945L62.01875 127.64445ZM65.05 123.41007Q65.05 121.87882 65.3625 120.95695Q65.675 120.01945 66.28438 119.51945Q66.90938 119.01945 67.84688 119.01945Q68.53438 119.01945 69.05 119.3007Q69.58125 119.58195 69.925 120.1132Q70.26875 120.62882 70.45625 121.37882Q70.64375 122.12882 70.64375 123.41007Q70.64375 124.9257 70.33125 125.84757Q70.03438 126.76945 69.40938 127.28507Q68.8 127.78507 67.84688 127.78507Q66.6125 127.78507 65.89375 126.89445Q65.05 125.83195 65.05 123.41007ZM66.12813 123.41007Q66.12813 125.51945 66.62813 126.22257Q67.12813 126.9257 67.84688 126.9257Q68.58125 126.9257 69.06563 126.22257Q69.56563 125.51945 69.56563 123.41007Q69.56563 121.28507 69.06563 120.59757Q68.58125 119.89445 67.83125 119.89445Q67.1125 119.89445 66.675 120.50382Q66.12813 121.28507 66.12813 123.41007Z" fill-rule="nonzero"/><path fill="#000000" d="M62.01875 92.28333L60.971874 92.28333L60.971874 85.56458Q60.58125 85.92396 59.95625 86.29896Q59.346874 86.65833 58.8625 86.83021L58.8625 85.81458Q59.7375 85.39271 60.39375 84.81458Q61.065624 84.22083 61.346874 83.65833L62.01875 83.65833L62.01875 92.28333ZM70.59688 91.26771L70.59688 92.28333L64.90938 92.28333Q64.90938 91.90833 65.03438 91.54896Q65.25313 90.97083 65.72188 90.40833Q66.20625 89.84583 67.1125 89.11146Q68.51875 87.95521 69.00313 87.28333Q69.50313 86.61146 69.50313 86.01771Q69.50313 85.39271 69.05 84.97083Q68.59688 84.53333 67.87813 84.53333Q67.1125 84.53333 66.65938 84.98646Q66.20625 85.43958 66.19063 86.25208L65.1125 86.14271Q65.22188 84.92396 65.94063 84.29896Q66.675 83.65833 67.90938 83.65833Q69.14375 83.65833 69.8625 84.34583Q70.58125 85.03333 70.58125 86.04896Q70.58125 86.56458 70.3625 87.06458Q70.15938 87.54896 69.65938 88.11146Q69.175 88.65833 68.05 89.61146Q67.09688 90.40833 66.81563 90.70521Q66.55 90.98646 66.37813 91.26771L70.59688 91.26771Z" fill-rule="nonzero"/><path fill="#000000" d="M74.55 313.21564Q74.55 311.6844 74.8625 310.7625Q75.175 309.825 75.78438 309.325Q76.40938 308.825 77.34688 308.825Q78.03438 308.825 78.55 309.10626Q79.08125 309.3875 79.425 309.91876Q79.76875 310.4344 79.95625 311.1844Q80.14375 311.9344 80.14375 313.21564Q80.14375 314.73126 79.83125 315.65314Q79.53438 316.575 78.90938 317.09064Q78.3 317.59064 77.34688 317.59064Q76.1125 317.59064 75.39375 316.7Q74.55 315.6375 74.55 313.21564ZM75.62813 313.21564Q75.62813 315.325 76.12813 316.02814Q76.62813 316.73126 77.34688 316.73126Q78.08125 316.73126 78.56563 316.02814Q79.06563 315.325 79.06563 313.21564Q79.06563 311.09064 78.56563 310.40314Q78.08125 309.7 77.33125 309.7Q76.6125 309.7 76.175 310.3094Q75.62813 311.09064 75.62813 313.21564Z" fill-rule="nonzero"/><path fill="#000000" d="M149.91072 317.45L149.91072 315.3875L146.19197 315.3875L146.19197 314.41876L150.11385 308.85626L150.97322 308.85626L150.97322 314.41876L152.12947 314.41876L152.12947 315.3875L150.97322 315.3875L150.97322 317.45L149.91072 317.45ZM149.91072 314.41876L149.91072 310.5594L147.22322 314.41876L149.91072 314.41876Z" fill-rule="nonzero"/><path fill="#000000" d="M220.14642 312.79376Q219.49017 312.54376 219.16205 312.10626Q218.84955 311.65314 218.84955 311.04376Q218.84955 310.10626 219.52142 309.46564Q220.20892 308.825 221.3183 308.825Q222.4433 308.825 223.1308 309.48126Q223.8183 310.1375 223.8183 311.075Q223.8183 311.66876 223.5058 312.10626Q223.1933 312.54376 222.55267 312.79376Q223.34955 313.04376 223.7558 313.6219Q224.16205 314.2 224.16205 314.9969Q224.16205 316.09064 223.3808 316.84064Q222.61517 317.59064 221.33392 317.59064Q220.0683 317.59064 219.28705 316.84064Q218.5058 316.09064 218.5058 314.96564Q218.5058 314.1219 218.92767 313.5594Q219.36517 312.9969 220.14642 312.79376ZM219.92767 310.9969Q219.92767 311.60626 220.3183 311.9969Q220.72455 312.3875 221.34955 312.3875Q221.95892 312.3875 222.34955 312.0125Q222.74017 311.6219 222.74017 311.0594Q222.74017 310.48126 222.33392 310.09064Q221.92767 309.6844 221.33392 309.6844Q220.72455 309.6844 220.3183 310.075Q219.92767 310.46564 219.92767 310.9969ZM219.59955 314.96564Q219.59955 315.41876 219.80267 315.84064Q220.02142 316.2625 220.4433 316.4969Q220.86517 316.73126 221.34955 316.73126Q222.09955 316.73126 222.58392 316.2469Q223.08392 315.7625 223.08392 315.0125Q223.08392 314.2469 222.58392 313.7469Q222.08392 313.2469 221.3183 313.2469Q220.5683 313.2469 220.08392 313.7469Q219.59955 314.23126 219.59955 314.96564Z" fill-rule="nonzero"/><path fill="#000000" d="M290.9759 317.45L289.92902 317.45L289.92902 310.73126Q289.5384 311.09064 288.9134 311.46564Q288.30402 311.825 287.81964 311.9969L287.81964 310.98126Q288.69464 310.5594 289.3509 309.98126Q290.02277 309.3875 290.30402 308.825L290.9759 308.825L290.9759 317.45ZM299.55402 316.4344L299.55402 317.45L293.86652 317.45Q293.86652 317.075 293.99152 316.71564Q294.21027 316.1375 294.67902 315.575Q295.1634 315.0125 296.06964 314.27814Q297.4759 313.1219 297.96027 312.45Q298.46027 311.77814 298.46027 311.1844Q298.46027 310.5594 298.00714 310.1375Q297.55402 309.7 296.83527 309.7Q296.06964 309.7 295.61652 310.15314Q295.1634 310.60626 295.14777 311.41876L294.06964 311.3094Q294.17902 310.09064 294.89777 309.46564Q295.63214 308.825 296.86652 308.825Q298.1009 308.825 298.81964 309.5125Q299.5384 310.2 299.5384 311.21564Q299.5384 311.73126 299.31964 312.23126Q299.11652 312.71564 298.61652 313.27814Q298.13214 313.825 297.00714 314.77814Q296.05402 315.575 295.77277 315.8719Q295.50714 316.15314 295.33527 316.4344L299.55402 316.4344Z" fill-rule="nonzero"/><path fill="#000000" d="M362.9616 317.45L361.91473 317.45L361.91473 310.73126Q361.5241 311.09064 360.8991 311.46564Q360.28973 311.825 359.80536 311.9969L359.80536 310.98126Q360.68036 310.5594 361.3366 309.98126Q362.00848 309.3875 362.28973 308.825L362.9616 308.825L362.9616 317.45ZM371.4616 310.96564L370.41473 311.04376Q370.2741 310.41876 370.0241 310.1375Q369.5866 309.6844 368.9616 309.6844Q368.4616 309.6844 368.07098 309.96564Q367.5866 310.34064 367.28973 311.04376Q367.00848 311.73126 366.99286 313.0125Q367.36786 312.4344 367.91473 312.15314Q368.47723 311.8719 369.0866 311.8719Q370.13348 311.8719 370.86786 312.65314Q371.61786 313.4344 371.61786 314.65314Q371.61786 315.46564 371.25848 316.16876Q370.91473 316.85626 370.30536 317.23126Q369.69598 317.59064 368.93036 317.59064Q367.60223 317.59064 366.7741 316.6219Q365.94598 315.65314 365.94598 313.4344Q365.94598 310.9344 366.86786 309.8094Q367.66473 308.825 369.0241 308.825Q370.03973 308.825 370.68036 309.40314Q371.3366 309.96564 371.4616 310.96564ZM367.16473 314.66876Q367.16473 315.21564 367.38348 315.71564Q367.61786 316.2 368.0241 316.46564Q368.44598 316.73126 368.91473 316.73126Q369.57098 316.73126 370.05536 316.2Q370.53973 315.65314 370.53973 314.73126Q370.53973 313.84064 370.05536 313.325Q369.5866 312.8094 368.86786 312.8094Q368.1491 312.8094 367.6491 313.325Q367.16473 313.84064 367.16473 314.66876Z" fill-rule="nonzero"/><path fill="#000000" d="M436.52545 316.4344L436.52545 317.45L430.83795 317.45Q430.83795 317.075 430.96295 316.71564Q431.1817 316.1375 431.65045 315.575Q432.13483 315.0125 433.04108 314.27814Q434.44733 313.1219 434.9317 312.45Q435.4317 311.77814 435.4317 311.1844Q435.4317 310.5594 434.97858 310.1375Q434.52545 309.7 433.8067 309.7Q433.04108 309.7 432.58795 310.15314Q432.13483 310.60626 432.1192 311.41876L431.04108 311.3094Q431.15045 310.09064 431.8692 309.46564Q432.60358 308.825 433.83795 308.825Q435.07233 308.825 435.79108 309.5125Q436.50983 310.2 436.50983 311.21564Q436.50983 311.73126 436.29108 312.23126Q436.08795 312.71564 435.58795 313.27814Q435.10358 313.825 433.97858 314.77814Q433.02545 315.575 432.7442 315.8719Q432.47858 316.15314 432.3067 316.4344L436.52545 316.4344ZM437.97858 313.21564Q437.97858 311.6844 438.29108 310.7625Q438.60358 309.825 439.21295 309.325Q439.83795 308.825 440.77545 308.825Q441.46295 308.825 441.97858 309.10626Q442.50983 309.3875 442.85358 309.91876Q443.19733 310.4344 443.38483 311.1844Q443.57233 311.9344 443.57233 313.21564Q443.57233 314.73126 443.25983 315.65314Q442.96295 316.575 442.33795 317.09064Q441.72858 317.59064 440.77545 317.59064Q439.54108 317.59064 438.82233 316.7Q437.97858 315.6375 437.97858 313.21564ZM439.0567 313.21564Q439.0567 315.325 439.5567 316.02814Q440.0567 316.73126 440.77545 316.73126Q441.50983 316.73126 441.9942 316.02814Q442.4942 315.325 442.4942 313.21564Q442.4942 311.09064 441.9942 310.40314Q441.50983 309.7 440.75983 309.7Q440.04108 309.7 439.60358 310.3094Q439.0567 311.09064 439.0567 313.21564Z" fill-rule="nonzero"/><path fill="#000000" d="M508.51117 316.4344L508.51117 317.45L502.82367 317.45Q502.82367 317.075 502.94867 316.71564Q503.16742 316.1375 503.63617 315.575Q504.12054 315.0125 505.0268 314.27814Q506.43304 313.1219 506.91742 312.45Q507.41742 311.77814 507.41742 311.1844Q507.41742 310.5594 506.9643 310.1375Q506.51117 309.7 505.79242 309.7Q505.0268 309.7 504.57367 310.15314Q504.12054 310.60626 504.10492 311.41876L503.0268 311.3094Q503.13617 310.09064 503.85492 309.46564Q504.5893 308.825 505.82367 308.825Q507.05804 308.825 507.7768 309.5125Q508.49554 310.2 508.49554 311.21564Q508.49554 311.73126 508.2768 312.23126Q508.07367 312.71564 507.57367 313.27814Q507.0893 313.825 505.9643 314.77814Q505.01117 315.575 504.72992 315.8719Q504.4643 316.15314 504.29242 316.4344L508.51117 316.4344ZM513.3393 317.45L513.3393 315.3875L509.62054 315.3875L509.62054 314.41876L513.5424 308.85626L514.4018 308.85626L514.4018 314.41876L515.55804 314.41876L515.55804 315.3875L514.4018 315.3875L514.4018 317.45L513.3393 317.45ZM513.3393 314.41876L513.3393 310.5594L510.6518 314.41876L513.3393 314.41876Z" fill-rule="nonzero"/><path fill="#000000" d="M580.4969 316.4344L580.4969 317.45L574.8094 317.45Q574.8094 317.075 574.9344 316.71564Q575.15314 316.1375 575.6219 315.575Q576.10626 315.0125 577.0125 314.27814Q578.41876 313.1219 578.90314 312.45Q579.40314 311.77814 579.40314 311.1844Q579.40314 310.5594 578.95 310.1375Q578.4969 309.7 577.77814 309.7Q577.0125 309.7 576.5594 310.15314Q576.10626 310.60626 576.09064 311.41876L575.0125 311.3094Q575.1219 310.09064 575.84064 309.46564Q576.575 308.825 577.8094 308.825Q579.04376 308.825 579.7625 309.5125Q580.48126 310.2 580.48126 311.21564Q580.48126 311.73126 580.2625 312.23126Q580.0594 312.71564 579.5594 313.27814Q579.075 313.825 577.95 314.77814Q576.9969 315.575 576.71564 315.8719Q576.45 316.15314 576.27814 316.4344L580.4969 316.4344ZM583.575 312.79376Q582.91876 312.54376 582.59064 312.10626Q582.27814 311.65314 582.27814 311.04376Q582.27814 310.10626 582.95 309.46564Q583.6375 308.825 584.7469 308.825Q585.8719 308.825 586.5594 309.48126Q587.2469 310.1375 587.2469 311.075Q587.2469 311.66876 586.9344 312.10626Q586.6219 312.54376 585.98126 312.79376Q586.77814 313.04376 587.1844 313.6219Q587.59064 314.2 587.59064 314.9969Q587.59064 316.09064 586.8094 316.84064Q586.04376 317.59064 584.7625 317.59064Q583.4969 317.59064 582.71564 316.84064Q581.9344 316.09064 581.9344 314.96564Q581.9344 314.1219 582.35626 313.5594Q582.79376 312.9969 583.575 312.79376ZM583.35626 310.9969Q583.35626 311.60626 583.7469 311.9969Q584.15314 312.3875 584.77814 312.3875Q585.3875 312.3875 585.77814 312.0125Q586.16876 311.6219 586.16876 311.0594Q586.16876 310.48126 585.7625 310.09064Q585.35626 309.6844 584.7625 309.6844Q584.15314 309.6844 583.7469 310.075Q583.35626 310.46564 583.35626 310.9969ZM583.02814 314.96564Q583.02814 315.41876 583.23126 315.84064Q583.45 316.2625 583.8719 316.4969Q584.29376 316.73126 584.77814 316.73126Q585.52814 316.73126 586.0125 316.2469Q586.5125 315.7625 586.5125 315.0125Q586.5125 314.2469 586.0125 313.7469Q585.5125 313.2469 584.7469 313.2469Q583.9969 313.2469 583.5125 313.7469Q583.02814 314.23126 583.02814 314.96564Z" fill-rule="nonzero"/><path fill="#4285f4" d="M110.0 61.916668C110.0 65.23038 107.313705 67.916664 104.0 67.916664C100.686295 67.916664 98.0 65.23038 98.0 61.916668C98.0 58.60296 100.686295 55.916668 104.0 55.916668C107.313705 55.916668 110.0 58.60296 110.0 61.916668Z" fill-rule="nonzero"/><path fill="#1a1a1a" d="M122.46875 65.916664L121.421875 65.916664L121.421875 59.197914Q121.03125 59.55729 120.40625 59.93229Q119.796875 60.291664 119.3125 60.46354L119.3125 59.447914Q120.1875 59.02604 120.84375 58.447914Q121.515625 57.854164 121.796875 57.291664L122.46875 57.291664L122.46875 65.916664ZM125.5 61.68229Q125.5 60.15104 125.8125 59.229164Q126.125 58.291664 126.734375 57.791664Q127.359375 57.291664 128.29688 57.291664Q128.98438 57.291664 129.5 57.572914Q130.03125 57.854164 130.375 58.385414Q130.71875 58.90104 130.90625 59.65104Q131.09375 60.40104 131.09375 61.68229Q131.09375 63.197914 130.78125 64.11979Q130.48438 65.041664 129.85938 65.55729Q129.25 66.05729 128.29688 66.05729Q127.0625 66.05729 126.34375 65.166664Q125.5 64.104164 125.5 61.68229ZM126.578125 61.68229Q126.578125 63.791664 127.078125 64.49479Q127.578125 65.197914 128.29688 65.197914Q129.03125 65.197914 129.51562 64.49479Q130.01562 63.791664 130.01562 61.68229Q130.01562 59.55729 129.51562 58.86979Q129.03125 58.166664 128.28125 58.166664Q127.5625 58.166664 127.125 58.77604Q126.578125 59.55729 126.578125 61.68229ZM132.5 61.68229Q132.5 60.15104 132.8125 59.229164Q133.125 58.291664 133.73438 57.791664Q134.35938 57.291664 135.29688 57.291664Q135.98438 57.291664 136.5 57.572914Q137.03125 57.854164 137.375 58.385414Q137.71875 58.90104 137.90625 59.65104Q138.09375 60.40104 138.09375 61.68229Q138.09375 63.197914 137.78125 64.11979Q137.48438 65.041664 136.85938 65.55729Q136.25 66.05729 135.29688 66.05729Q134.0625 66.05729 133.34375 65.166664Q132.5 64.104164 132.5 61.68229ZM133.57812 61.68229Q133.57812 63.791664 134.07812 64.49479Q134.57812 65.197914 135.29688 65.197914Q136.03125 65.197914 136.51562 64.49479Q137.01562 63.791664 137.01562 61.68229Q137.01562 59.55729 136.51562 58.86979Q136.03125 58.166664 135.28125 58.166664Q134.5625 58.166664 134.125 58.77604Q133.57812 59.55729 133.57812 61.68229ZM139.5 61.68229Q139.5 60.15104 139.8125 59.229164Q140.125 58.291664 140.73438 57.791664Q141.35938 57.291664 142.29688 57.291664Q142.98438 57.291664 143.5 57.572914Q144.03125 57.854164 144.375 58.385414Q144.71875 58.90104 144.90625 59.65104Q145.09375 60.40104 145.09375 61.68229Q145.09375 63.197914 144.78125 64.11979Q144.48438 65.041664 143.85938 65.55729Q143.25 66.05729 142.29688 66.05729Q141.0625 66.05729 140.34375 65.166664Q139.5 64.104164 139.5 61.68229ZM140.57812 61.68229Q140.57812 63.791664 141.07812 64.49479Q141.57812 65.197914 142.29688 65.197914Q143.03125 65.197914 143.51562 64.49479Q144.01562 63.791664 144.01562 61.68229Q144.01562 59.55729 143.51562 58.86979Q143.03125 58.166664 142.28125 58.166664Q141.5625 58.166664 141.125 58.77604Q140.57812 59.55729 140.57812 61.68229ZM146.5 61.68229Q146.5 60.15104 146.8125 59.229164Q147.125 58.291664 147.73438 57.791664Q148.35938 57.291664 149.29688 57.291664Q149.98438 57.291664 150.5 57.572914Q151.03125 57.854164 151.375 58.385414Q151.71875 58.90104 151.90625 59.65104Q152.09375 60.40104 152.09375 61.68229Q152.09375 63.197914 151.78125 64.11979Q151.48438 65.041664 150.85938 65.55729Q150.25 66.05729 149.29688 66.05729Q148.0625 66.05729 147.34375 65.166664Q146.5 64.104164 146.5 61.68229ZM147.57812 61.68229Q147.57812 63.791664 148.07812 64.49479Q148.57812 65.197914 149.29688 65.197914Q150.03125 65.197914 150.51562 64.49479Q151.01562 63.791664 151.01562 61.68229Q151.01562 59.55729 150.51562 58.86979Q150.03125 58.166664 149.28125 58.166664Q148.5625 58.166664 148.125 58.77604Q147.57812 59.55729 147.57812 61.68229ZM160.46875 65.916664L159.42188 65.916664L159.42188 59.197914Q159.03125 59.55729 158.40625 59.93229Q157.79688 60.291664 157.3125 60.46354L157.3125 59.447914Q158.1875 59.02604 158.84375 58.447914Q159.51562 57.854164 159.79688 57.291664L160.46875 57.291664L160.46875 65.916664ZM163.5 61.68229Q163.5 60.15104 163.8125 59.229164Q164.125 58.291664 164.73438 57.791664Q165.35938 57.291664 166.29688 57.291664Q166.98438 57.291664 167.5 57.572914Q168.03125 57.854164 168.375 58.385414Q168.71875 58.90104 168.90625 59.65104Q169.09375 60.40104 169.09375 61.68229Q169.09375 63.197914 168.78125 64.11979Q168.48438 65.041664 167.85938 65.55729Q167.25 66.05729 166.29688 66.05729Q165.0625 66.05729 164.34375 65.166664Q163.5 64.104164 163.5 61.68229ZM164.57812 61.68229Q164.57812 63.791664 165.07812 64.49479Q165.57812 65.197914 166.29688 65.197914Q167.03125 65.197914 167.51562 64.49479Q168.01562 63.791664 168.01562 61.68229Q168.01562 59.55729 167.51562 58.86979Q167.03125 58.166664 166.28125 58.166664Q165.5625 58.166664 165.125 58.77604Q164.57812 59.55729 164.57812 61.68229ZM170.5 61.68229Q170.5 60.15104 170.8125 59.229164Q171.125 58.291664 171.73438 57.791664Q172.35938 57.291664 173.29688 57.291664Q173.98438 57.291664 174.5 57.572914Q175.03125 57.854164 175.375 58.385414Q175.71875 58.90104 175.90625 59.65104Q176.09375 60.40104 176.09375 61.68229Q176.09375 63.197914 175.78125 64.11979Q175.48438 65.041664 174.85938 65.55729Q174.25 66.05729 173.29688 66.05729Q172.0625 66.05729 171.34375 65.166664Q170.5 64.104164 170.5 61.68229ZM171.57812 61.68229Q171.57812 63.791664 172.07812 64.49479Q172.57812 65.197914 173.29688 65.197914Q174.03125 65.197914 174.51562 64.49479Q175.01562 63.791664 175.01562 61.68229Q175.01562 59.55729 174.51562 58.86979Q174.03125 58.166664 173.28125 58.166664Q172.5625 58.166664 172.125 58.77604Q171.57812 59.55729 171.57812 61.68229ZM177.5 61.68229Q177.5 60.15104 177.8125 59.229164Q178.125 58.291664 178.73438 57.791664Q179.35938 57.291664 180.29688 57.291664Q180.98438 57.291664 181.5 57.572914Q182.03125 57.854164 182.375 58.385414Q182.71875 58.90104 182.90625 59.65104Q183.09375 60.40104 183.09375 61.68229Q183.09375 63.197914 182.78125 64.11979Q182.48438 65.041664 181.85938 65.55729Q181.25 66.05729 180.29688 66.05729Q179.0625 66.05729 178.34375 65.166664Q177.5 64.104164 177.5 61.68229ZM178.57812 61.68229Q178.57812 63.791664 179.07812 64.49479Q179.57812 65.197914 180.29688 65.197914Q181.03125 65.197914 181.51562 64.49479Q182.01562 63.791664 182.01562 61.68229Q182.01562 59.55729 181.51562 58.86979Q181.03125 58.166664 180.28125 58.166664Q179.5625 58.166664 179.125 58.77604Q178.57812 59.55729 178.57812 61.68229ZM184.5 61.68229Q184.5 60.15104 184.8125 59.229164Q185.125 58.291664 185.73438 57.791664Q186.35938 57.291664 187.29688 57.291664Q187.98438 57.291664 188.5 57.572914Q189.03125 57.854164 189.375 58.385414Q189.71875 58.90104 189.90625 59.65104Q190.09375 60.40104 190.09375 61.68229Q190.09375 63.197914 189.78125 64.11979Q189.48438 65.041664 188.85938 65.55729Q188.25 66.05729 187.29688 66.05729Q186.0625 66.05729 185.34375 65.166664Q184.5 64.104164 184.5 61.68229ZM185.57812 61.68229Q185.57812 63.791664 186.07812 64.49479Q186.57812 65.197914 187.29688 65.197914Q188.03125 65.197914 188.51562 64.49479Q189.01562 63.791664 189.01562 61.68229Q189.01562 59.55729 188.51562 58.86979Q188.03125 58.166664 187.28125 58.166664Q186.5625 58.166664 186.125 58.77604Q185.57812 59.55729 185.57812 61.68229ZM198.46875 65.916664L197.42188 65.916664L197.42188 59.197914Q197.03125 59.55729 196.40625 59.93229Q195.79688 60.291664 195.3125 60.46354L195.3125 59.447914Q196.1875 59.02604 196.84375 58.447914Q197.51562 57.854164 197.79688 57.291664L198.46875 57.291664L198.46875 65.916664ZM201.5 61.68229Q201.5 60.15104 201.8125 59.229164Q202.125 58.291664 202.73438 57.791664Q203.35938 57.291664 204.29688 57.291664Q204.98438 57.291664 205.5 57.572914Q206.03125 57.854164 206.375 58.385414Q206.71875 58.90104 206.90625 59.65104Q207.09375 60.40104 207.09375 61.68229Q207.09375 63.197914 206.78125 64.11979Q206.48438 65.041664 205.85938 65.55729Q205.25 66.05729 204.29688 66.05729Q203.0625 66.05729 202.34375 65.166664Q201.5 64.104164 201.5 61.68229ZM202.57812 61.68229Q202.57812 63.791664 203.07812 64.49479Q203.57812 65.197914 204.29688 65.197914Q205.03125 65.197914 205.51562 64.49479Q206.01562 63.791664 206.01562 61.68229Q206.01562 59.55729 205.51562 58.86979Q205.03125 58.166664 204.28125 58.166664Q203.5625 58.166664 203.125 58.77604Q202.57812 59.55729 202.57812 61.68229ZM208.5 61.68229Q208.5 60.15104 208.8125 59.229164Q209.125 58.291664 209.73438 57.791664Q210.35938 57.291664 211.29688 57.291664Q211.98438 57.291664 212.5 57.572914Q213.03125 57.854164 213.375 58.385414Q213.71875 58.90104 213.90625 59.65104Q214.09375 60.40104 214.09375 61.68229Q214.09375 63.197914 213.78125 64.11979Q213.48438 65.041664 212.85938 65.55729Q212.25 66.05729 211.29688 66.05729Q210.0625 66.05729 209.34375 65.166664Q208.5 64.104164 208.5 61.68229ZM209.57812 61.68229Q209.57812 63.791664 210.07812 64.49479Q210.57812 65.197914 211.29688 65.197914Q212.03125 65.197914 212.51562 64.49479Q213.01562 63.791664 213.01562 61.68229Q213.01562 59.55729 212.51562 58.86979Q212.03125 58.166664 211.28125 58.166664Q210.5625 58.166664 210.125 58.77604Q209.57812 59.55729 209.57812 61.68229ZM215.5 61.68229Q215.5 60.15104 215.8125 59.229164Q216.125 58.291664 216.73438 57.791664Q217.35938 57.291664 218.29688 57.291664Q218.98438 57.291664 219.5 57.572914Q220.03125 57.854164 220.375 58.385414Q220.71875 58.90104 220.90625 59.65104Q221.09375 60.40104 221.09375 61.68229Q221.09375 63.197914 220.78125 64.11979Q220.48438 65.041664 219.85938 65.55729Q219.25 66.05729 218.29688 66.05729Q217.0625 66.05729 216.34375 65.166664Q215.5 64.104164 215.5 61.68229ZM216.57812 61.68229Q216.57812 63.791664 217.07812 64.49479Q217.57812 65.197914 218.29688 65.197914Q219.03125 65.197914 219.51562 64.49479Q220.01562 63.791664 220.01562 61.68229Q220.01562 59.55729 219.51562 58.86979Q219.03125 58.166664 218.28125 58.166664Q217.5625 58.166664 217.125 58.77604Q216.57812 59.55729 216.57812 61.68229ZM222.5 61.68229Q222.5 60.15104 222.8125 59.229164Q223.125 58.291664 223.73438 57.791664Q224.35938 57.291664 225.29688 57.291664Q225.98438 57.291664 226.5 57.572914Q227.03125 57.854164 227.375 58.385414Q227.71875 58.90104 227.90625 59.65104Q228.09375 60.40104 228.09375 61.68229Q228.09375 63.197914 227.78125 64.11979Q227.48438 65.041664 226.85938 65.55729Q226.25 66.05729 225.29688 66.05729Q224.0625 66.05729 223.34375 65.166664Q222.5 64.104164 222.5 61.68229ZM223.57812 61.68229Q223.57812 63.791664 224.07812 64.49479Q224.57812 65.197914 225.29688 65.197914Q226.03125 65.197914 226.51562 64.49479Q227.01562 63.791664 227.01562 61.68229Q227.01562 59.55729 226.51562 58.86979Q226.03125 58.166664 225.28125 58.166664Q224.5625 58.166664 224.125 58.77604Q223.57812 59.55729 223.57812 61.68229Z" fill-rule="nonzero"/><path fill="#ea4335" d="M257.0 61.916668C257.0 65.23038 254.3137 67.916664 251.0 67.916664C247.6863 67.916664 245.0 65.23038 245.0 61.916668C245.0 58.60296 247.6863 55.916668 251.0 55.916668C254.3137 55.916668 257.0 58.60296 257.0 61.916668Z" fill-rule="nonzero"/><path fill="#1a1a1a" d="M271.04688 64.90104L271.04688 65.916664L265.35938 65.916664Q265.35938 65.541664 265.48438 65.18229Q265.70312 64.604164 266.17188 64.041664Q266.65625 63.479164 267.5625 62.74479Q268.96875 61.58854 269.45312 60.916664Q269.95312 60.24479 269.95312 59.65104Q269.95312 59.02604 269.5 58.604164Q269.04688 58.166664 268.32812 58.166664Q267.5625 58.166664 267.10938 58.61979Q266.65625 59.072914 266.64062 59.885414L265.5625 59.77604Q265.67188 58.55729 266.39062 57.93229Q267.125 57.291664 268.35938 57.291664Q269.59375 57.291664 270.3125 57.979164Q271.03125 58.666664 271.03125 59.68229Q271.03125 60.197914 270.8125 60.697914Q270.60938 61.18229 270.10938 61.74479Q269.625 62.291664 268.5 63.24479Q267.54688 64.041664 267.26562 64.33854Q267.0 64.61979 266.82812 64.90104L271.04688 64.90104ZM272.5 61.68229Q272.5 60.15104 272.8125 59.229164Q273.125 58.291664 273.73438 57.791664Q274.35938 57.291664 275.29688 57.291664Q275.98438 57.291664 276.5 57.572914Q277.03125 57.854164 277.375 58.385414Q277.71875 58.90104 277.90625 59.65104Q278.09375 60.40104 278.09375 61.68229Q278.09375 63.197914 277.78125 64.11979Q277.48438 65.041664 276.85938 65.55729Q276.25 66.05729 275.29688 66.05729Q274.0625 66.05729 273.34375 65.166664Q272.5 64.104164 272.5 61.68229ZM273.57812 61.68229Q273.57812 63.791664 274.07812 64.49479Q274.57812 65.197914 275.29688 65.197914Q276.03125 65.197914 276.51562 64.49479Q277.01562 63.791664 277.01562 61.68229Q277.01562 59.55729 276.51562 58.86979Q276.03125 58.166664 275.28125 58.166664Q274.5625 58.166664 274.125 58.77604Q273.57812 59.55729 273.57812 61.68229ZM279.5 61.68229Q279.5 60.15104 279.8125 59.229164Q280.125 58.291664 280.73438 57.791664Q281.35938 57.291664 282.29688 57.291664Q282.98438 57.291664 283.5 57.572914Q284.03125 57.854164 284.375 58.385414Q284.71875 58.90104 284.90625 59.65104Q285.09375 60.40104 285.09375 61.68229Q285.09375 63.197914 284.78125 64.11979Q284.48438 65.041664 283.85938 65.55729Q283.25 66.05729 282.29688 66.05729Q281.0625 66.05729 280.34375 65.166664Q279.5 64.104164 279.5 61.68229ZM280.57812 61.68229Q280.57812 63.791664 281.07812 64.49479Q281.57812 65.197914 282.29688 65.197914Q283.03125 65.197914 283.51562 64.49479Q284.01562 63.791664 284.01562 61.68229Q284.01562 59.55729 283.51562 58.86979Q283.03125 58.166664 282.28125 58.166664Q281.5625 58.166664 281.125 58.77604Q280.57812 59.55729 280.57812 61.68229ZM286.5 61.68229Q286.5 60.15104 286.8125 59.229164Q287.125 58.291664 287.73438 57.791664Q288.35938 57.291664 289.29688 57.291664Q289.98438 57.291664 290.5 57.572914Q291.03125 57.854164 291.375 58.385414Q291.71875 58.90104 291.90625 59.65104Q292.09375 60.40104 292.09375 61.68229Q292.09375 63.197914 291.78125 64.11979Q291.48438 65.041664 290.85938 65.55729Q290.25 66.05729 289.29688 66.05729Q288.0625 66.05729 287.34375 65.166664Q286.5 64.104164 286.5 61.68229ZM287.57812 61.68229Q287.57812 63.791664 288.07812 64.49479Q288.57812 65.197914 289.29688 65.197914Q290.03125 65.197914 290.51562 64.49479Q291.01562 63.791664 291.01562 61.68229Q291.01562 59.55729 290.51562 58.86979Q290.03125 58.166664 289.28125 58.166664Q288.5625 58.166664 288.125 58.77604Q287.57812 59.55729 287.57812 61.68229ZM293.5 61.68229Q293.5 60.15104 293.8125 59.229164Q294.125 58.291664 294.73438 57.791664Q295.35938 57.291664 296.29688 57.291664Q296.98438 57.291664 297.5 57.572914Q298.03125 57.854164 298.375 58.385414Q298.71875 58.90104 298.90625 59.65104Q299.09375 60.40104 299.09375 61.68229Q299.09375 63.197914 298.78125 64.11979Q298.48438 65.041664 297.85938 65.55729Q297.25 66.05729 296.29688 66.05729Q295.0625 66.05729 294.34375 65.166664Q293.5 64.104164 293.5 61.68229ZM294.57812 61.68229Q294.57812 63.791664 295.07812 64.49479Q295.57812 65.197914 296.29688 65.197914Q297.03125 65.197914 297.51562 64.49479Q298.01562 63.791664 298.01562 61.68229Q298.01562 59.55729 297.51562 58.86979Q297.03125 58.166664 296.28125 58.166664Q295.5625 58.166664 295.125 58.77604Q294.57812 59.55729 294.57812 61.68229ZM303.5 63.666664L304.60938 63.572914Q304.73438 64.385414 305.17188 64.791664Q305.625 65.197914 306.26562 65.197914Q307.01562 65.197914 307.54688 64.61979Q308.07812 64.041664 308.07812 63.104164Q308.07812 62.197914 307.5625 61.68229Q307.0625 61.15104 306.23438 61.15104Q305.73438 61.15104 305.3125 61.385414Q304.90625 61.61979 304.67188 61.979164L303.6875 61.854164L304.51562 57.447914L308.79688 57.447914L308.79688 58.447914L305.35938 58.447914L304.90625 60.760414Q305.67188 60.21354 306.51562 60.21354Q307.64062 60.21354 308.40625 60.99479Q309.1875 61.77604 309.1875 63.010414Q309.1875 64.166664 308.51562 65.02604Q307.6875 66.05729 306.26562 66.05729Q305.09375 66.05729 304.34375 65.40104Q303.60938 64.74479 303.5 63.666664ZM310.5 63.65104L311.5625 63.510414Q311.73438 64.40104 312.17188 64.80729Q312.60938 65.197914 313.23438 65.197914Q313.98438 65.197914 314.5 64.68229Q315.01562 64.166664 315.01562 63.40104Q315.01562 62.68229 314.53125 62.21354Q314.0625 61.729164 313.32812 61.729164Q313.03125 61.729164 312.57812 61.854164L312.70312 60.916664Q312.8125 60.93229 312.875 60.93229Q313.54688 60.93229 314.07812 60.58854Q314.625 60.229164 314.625 59.49479Q314.625 58.916664 314.23438 58.541664Q313.84375 58.15104 313.21875 58.15104Q312.60938 58.15104 312.1875 58.541664Q311.78125 58.93229 311.67188 59.697914L310.60938 59.510414Q310.79688 58.46354 311.48438 57.885414Q312.17188 57.291664 313.1875 57.291664Q313.89062 57.291664 314.48438 57.604164Q315.07812 57.90104 315.39062 58.416664Q315.70312 58.93229 315.70312 59.52604Q315.70312 60.072914 315.40625 60.541664Q315.10938 60.99479 314.53125 61.260414Q315.28125 61.43229 315.70312 61.99479Q316.125 62.541664 316.125 63.385414Q316.125 64.510414 315.29688 65.291664Q314.48438 66.072914 313.23438 66.072914Q312.10938 66.072914 311.35938 65.40104Q310.60938 64.71354 310.5 63.65104ZM317.5 61.68229Q317.5 60.15104 317.8125 59.229164Q318.125 58.291664 318.73438 57.791664Q319.35938 57.291664 320.29688 57.291664Q320.98438 57.291664 321.5 57.572914Q322.03125 57.854164 322.375 58.385414Q322.71875 58.90104 322.90625 59.65104Q323.09375 60.40104 323.09375 61.68229Q323.09375 63.197914 322.78125 64.11979Q322.48438 65.041664 321.85938 65.55729Q321.25 66.05729 320.29688 66.05729Q319.0625 66.05729 318.34375 65.166664Q317.5 64.104164 317.5 61.68229ZM318.57812 61.68229Q318.57812 63.791664 319.07812 64.49479Q319.57812 65.197914 320.29688 65.197914Q321.03125 65.197914 321.51562 64.49479Q322.01562 63.791664 322.01562 61.68229Q322.01562 59.55729 321.51562 58.86979Q321.03125 58.166664 320.28125 58.166664Q319.5625 58.166664 319.125 58.77604Q318.57812 59.55729 318.57812 61.68229ZM324.5 61.68229Q324.5 60.15104 324.8125 59.229164Q325.125 58.291664 325.73438 57.791664Q326.35938 57.291664 327.29688 57.291664Q327.98438 57.291664 328.5 57.572914Q329.03125 57.854164 329.375 58.385414Q329.71875 58.90104 329.90625 59.65104Q330.09375 60.40104 330.09375 61.68229Q330.09375 63.197914 329.78125 64.11979Q329.48438 65.041664 328.85938 65.55729Q328.25 66.05729 327.29688 66.05729Q326.0625 66.05729 325.34375 65.166664Q324.5 64.104164 324.5 61.68229ZM325.57812 61.68229Q325.57812 63.791664 326.07812 64.49479Q326.57812 65.197914 327.29688 65.197914Q328.03125 65.197914 328.51562 64.49479Q329.01562 63.791664 329.01562 61.68229Q329.01562 59.55729 328.51562 58.86979Q328.03125 58.166664 327.28125 58.166664Q326.5625 58.166664 326.125 58.77604Q325.57812 59.55729 325.57812 61.68229ZM334.5 63.666664L335.60938 63.572914Q335.73438 64.385414 336.17188 64.791664Q336.625 65.197914 337.26562 65.197914Q338.01562 65.197914 338.54688 64.61979Q339.07812 64.041664 339.07812 63.104164Q339.07812 62.197914 338.5625 61.68229Q338.0625 61.15104 337.23438 61.15104Q336.73438 61.15104 336.3125 61.385414Q335.90625 61.61979 335.67188 61.979164L334.6875 61.854164L335.51562 57.447914L339.79688 57.447914L339.79688 58.447914L336.35938 58.447914L335.90625 60.760414Q336.67188 60.21354 337.51562 60.21354Q338.64062 60.21354 339.40625 60.99479Q340.1875 61.77604 340.1875 63.010414Q340.1875 64.166664 339.51562 65.02604Q338.6875 66.05729 337.26562 66.05729Q336.09375 66.05729 335.34375 65.40104Q334.60938 64.74479 334.5 63.666664ZM341.5 61.68229Q341.5 60.15104 341.8125 59.229164Q342.125 58.291664 342.73438 57.791664Q343.35938 57.291664 344.29688 57.291664Q344.98438 57.291664 345.5 57.572914Q346.03125 57.854164 346.375 58.385414Q346.71875 58.90104 346.90625 59.65104Q347.09375 60.40104 347.09375 61.68229Q347.09375 63.197914 346.78125 64.11979Q346.48438 65.041664 345.85938 65.55729Q345.25 66.05729 344.29688 66.05729Q343.0625 66.05729 342.34375 65.166664Q341.5 64.104164 341.5 61.68229ZM342.57812 61.68229Q342.57812 63.791664 343.07812 64.49479Q343.57812 65.197914 344.29688 65.197914Q345.03125 65.197914 345.51562 64.49479Q346.01562 63.791664 346.01562 61.68229Q346.01562 59.55729 345.51562 58.86979Q345.03125 58.166664 344.28125 58.166664Q343.5625 58.166664 343.125 58.77604Q342.57812 59.55729 342.57812 61.68229ZM348.5 61.68229Q348.5 60.15104 348.8125 59.229164Q349.125 58.291664 349.73438 57.791664Q350.35938 57.291664 351.29688 57.291664Q351.98438 57.291664 352.5 57.572914Q353.03125 57.854164 353.375 58.385414Q353.71875 58.90104 353.90625 59.65104Q354.09375 60.40104 354.09375 61.68229Q354.09375 63.197914 353.78125 64.11979Q353.48438 65.041664 352.85938 65.55729Q352.25 66.05729 351.29688 66.05729Q350.0625 66.05729 349.34375 65.166664Q348.5 64.104164 348.5 61.68229ZM349.57812 61.68229Q349.57812 63.791664 350.07812 64.49479Q350.57812 65.197914 351.29688 65.197914Q352.03125 65.197914 352.51562 64.49479Q353.01562 63.791664 353.01562 61.68229Q353.01562 59.55729 352.51562 58.86979Q352.03125 58.166664 351.28125 58.166664Q350.5625 58.166664 350.125 58.77604Q349.57812 59.55729 349.57812 61.68229ZM355.5 61.68229Q355.5 60.15104 355.8125 59.229164Q356.125 58.291664 356.73438 57.791664Q357.35938 57.291664 358.29688 57.291664Q358.98438 57.291664 359.5 57.572914Q360.03125 57.854164 360.375 58.385414Q360.71875 58.90104 360.90625 59.65104Q361.09375 60.40104 361.09375 61.68229Q361.09375 63.197914 360.78125 64.11979Q360.48438 65.041664 359.85938 65.55729Q359.25 66.05729 358.29688 66.05729Q357.0625 66.05729 356.34375 65.166664Q355.5 64.104164 355.5 61.68229ZM356.57812 61.68229Q356.57812 63.791664 357.07812 64.49479Q357.57812 65.197914 358.29688 65.197914Q359.03125 65.197914 359.51562 64.49479Q360.01562 63.791664 360.01562 61.68229Q360.01562 59.55729 359.51562 58.86979Q359.03125 58.166664 358.28125 58.166664Q357.5625 58.166664 357.125 58.77604Q356.57812 59.55729 356.57812 61.68229ZM362.5 61.68229Q362.5 60.15104 362.8125 59.229164Q363.125 58.291664 363.73438 57.791664Q364.35938 57.291664 365.29688 57.291664Q365.98438 57.291664 366.5 57.572914Q367.03125 57.854164 367.375 58.385414Q367.71875 58.90104 367.90625 59.65104Q368.09375 60.40104 368.09375 61.68229Q368.09375 63.197914 367.78125 64.11979Q367.48438 65.041664 366.85938 65.55729Q366.25 66.05729 365.29688 66.05729Q364.0625 66.05729 363.34375 65.166664Q362.5 64.104164 362.5 61.68229ZM363.57812 61.68229Q363.57812 63.791664 364.07812 64.49479Q364.57812 65.197914 365.29688 65.197914Q366.03125 65.197914 366.51562 64.49479Q367.01562 63.791664 367.01562 61.68229Q367.01562 59.55729 366.51562 58.86979Q366.03125 58.166664 365.28125 58.166664Q364.5625 58.166664 364.125 58.77604Q363.57812 59.55729 363.57812 61.68229Z" fill-rule="nonzero"/><path fill="#fbbc04" d="M397.0 61.916668C397.0 65.23038 394.31372 67.916664 391.0 67.916664C387.68628 67.916664 385.0 65.23038 385.0 61.916668C385.0 58.60296 387.68628 55.916668 391.0 55.916668C394.31372 55.916668 397.0 58.60296 397.0 61.916668Z" fill-rule="nonzero"/><path fill="#1a1a1a" d="M405.65625 63.93229L406.67188 63.83854Q406.79688 64.55729 407.15625 64.885414Q407.53125 65.197914 408.09375 65.197914Q408.57812 65.197914 408.9375 64.979164Q409.3125 64.74479 409.54688 64.385414Q409.78125 64.010414 409.9375 63.385414Q410.09375 62.74479 410.09375 62.08854Q410.09375 62.010414 410.09375 61.86979Q409.78125 62.36979 409.23438 62.697914Q408.6875 63.010414 408.04688 63.010414Q406.96875 63.010414 406.23438 62.24479Q405.5 61.46354 405.5 60.197914Q405.5 58.885414 406.26562 58.08854Q407.04688 57.291664 408.20312 57.291664Q409.03125 57.291664 409.71875 57.74479Q410.42188 58.197914 410.78125 59.041664Q411.14062 59.86979 411.14062 61.447914Q411.14062 63.08854 410.78125 64.072914Q410.4375 65.041664 409.71875 65.55729Q409.01562 66.05729 408.07812 66.05729Q407.0625 66.05729 406.42188 65.510414Q405.78125 64.947914 405.65625 63.93229ZM409.96875 60.135414Q409.96875 59.229164 409.48438 58.697914Q409.01562 58.166664 408.32812 58.166664Q407.625 58.166664 407.09375 58.74479Q406.57812 59.30729 406.57812 60.229164Q406.57812 61.041664 407.07812 61.55729Q407.57812 62.072914 408.29688 62.072914Q409.03125 62.072914 409.5 61.55729Q409.96875 61.041664 409.96875 60.135414ZM412.5 61.68229Q412.5 60.15104 412.8125 59.229164Q413.125 58.291664 413.73438 57.791664Q414.35938 57.291664 415.29688 57.291664Q415.98438 57.291664 416.5 57.572914Q417.03125 57.854164 417.375 58.385414Q417.71875 58.90104 417.90625 59.65104Q418.09375 60.40104 418.09375 61.68229Q418.09375 63.197914 417.78125 64.11979Q417.48438 65.041664 416.85938 65.55729Q416.25 66.05729 415.29688 66.05729Q414.0625 66.05729 413.34375 65.166664Q412.5 64.104164 412.5 61.68229ZM413.57812 61.68229Q413.57812 63.791664 414.07812 64.49479Q414.57812 65.197914 415.29688 65.197914Q416.03125 65.197914 416.51562 64.49479Q417.01562 63.791664 417.01562 61.68229Q417.01562 59.55729 416.51562 58.86979Q416.03125 58.166664 415.28125 58.166664Q414.5625 58.166664 414.125 58.77604Q413.57812 59.55729 413.57812 61.68229ZM419.5 61.68229Q419.5 60.15104 419.8125 59.229164Q420.125 58.291664 420.73438 57.791664Q421.35938 57.291664 422.29688 57.291664Q422.98438 57.291664 423.5 57.572914Q424.03125 57.854164 424.375 58.385414Q424.71875 58.90104 424.90625 59.65104Q425.09375 60.40104 425.09375 61.68229Q425.09375 63.197914 424.78125 64.11979Q424.48438 65.041664 423.85938 65.55729Q423.25 66.05729 422.29688 66.05729Q421.0625 66.05729 420.34375 65.166664Q419.5 64.104164 419.5 61.68229ZM420.57812 61.68229Q420.57812 63.791664 421.07812 64.49479Q421.57812 65.197914 422.29688 65.197914Q423.03125 65.197914 423.51562 64.49479Q424.01562 63.791664 424.01562 61.68229Q424.01562 59.55729 423.51562 58.86979Q423.03125 58.166664 422.28125 58.166664Q421.5625 58.166664 421.125 58.77604Q420.57812 59.55729 420.57812 61.68229ZM426.5 61.68229Q426.5 60.15104 426.8125 59.229164Q427.125 58.291664 427.73438 57.791664Q428.35938 57.291664 429.29688 57.291664Q429.98438 57.291664 430.5 57.572914Q431.03125 57.854164 431.375 58.385414Q431.71875 58.90104 431.90625 59.65104Q432.09375 60.40104 432.09375 61.68229Q432.09375 63.197914 431.78125 64.11979Q431.48438 65.041664 430.85938 65.55729Q430.25 66.05729 429.29688 66.05729Q428.0625 66.05729 427.34375 65.166664Q426.5 64.104164 426.5 61.68229ZM427.57812 61.68229Q427.57812 63.791664 428.07812 64.49479Q428.57812 65.197914 429.29688 65.197914Q430.03125 65.197914 430.51562 64.49479Q431.01562 63.791664 431.01562 61.68229Q431.01562 59.55729 430.51562 58.86979Q430.03125 58.166664 429.28125 58.166664Q428.5625 58.166664 428.125 58.77604Q427.57812 59.55729 427.57812 61.68229ZM436.5 63.65104L437.5625 63.510414Q437.73438 64.40104 438.17188 64.80729Q438.60938 65.197914 439.23438 65.197914Q439.98438 65.197914 440.5 64.68229Q441.01562 64.166664 441.01562 63.40104Q441.01562 62.68229 440.53125 62.21354Q440.0625 61.729164 439.32812 61.729164Q439.03125 61.729164 438.57812 61.854164L438.70312 60.916664Q438.8125 60.93229 438.875 60.93229Q439.54688 60.93229 440.07812 60.58854Q440.625 60.229164 440.625 59.49479Q440.625 58.916664 440.23438 58.541664Q439.84375 58.15104 439.21875 58.15104Q438.60938 58.15104 438.1875 58.541664Q437.78125 58.93229 437.67188 59.697914L436.60938 59.510414Q436.79688 58.46354 437.48438 57.885414Q438.17188 57.291664 439.1875 57.291664Q439.89062 57.291664 440.48438 57.604164Q441.07812 57.90104 441.39062 58.416664Q441.70312 58.93229 441.70312 59.52604Q441.70312 60.072914 441.40625 60.541664Q441.10938 60.99479 440.53125 61.260414Q441.28125 61.43229 441.70312 61.99479Q442.125 62.541664 442.125 63.385414Q442.125 64.510414 441.29688 65.291664Q440.48438 66.072914 439.23438 66.072914Q438.10938 66.072914 437.35938 65.40104Q436.60938 64.71354 436.5 63.65104ZM443.5 63.666664L444.60938 63.572914Q444.73438 64.385414 445.17188 64.791664Q445.625 65.197914 446.26562 65.197914Q447.01562 65.197914 447.54688 64.61979Q448.07812 64.041664 448.07812 63.104164Q448.07812 62.197914 447.5625 61.68229Q447.0625 61.15104 446.23438 61.15104Q445.73438 61.15104 445.3125 61.385414Q444.90625 61.61979 444.67188 61.979164L443.6875 61.854164L444.51562 57.447914L448.79688 57.447914L448.79688 58.447914L445.35938 58.447914L444.90625 60.760414Q445.67188 60.21354 446.51562 60.21354Q447.64062 60.21354 448.40625 60.99479Q449.1875 61.77604 449.1875 63.010414Q449.1875 64.166664 448.51562 65.02604Q447.6875 66.05729 446.26562 66.05729Q445.09375 66.05729 444.34375 65.40104Q443.60938 64.74479 443.5 63.666664ZM450.5 61.68229Q450.5 60.15104 450.8125 59.229164Q451.125 58.291664 451.73438 57.791664Q452.35938 57.291664 453.29688 57.291664Q453.98438 57.291664 454.5 57.572914Q455.03125 57.854164 455.375 58.385414Q455.71875 58.90104 455.90625 59.65104Q456.09375 60.40104 456.09375 61.68229Q456.09375 63.197914 455.78125 64.11979Q455.48438 65.041664 454.85938 65.55729Q454.25 66.05729 453.29688 66.05729Q452.0625 66.05729 451.34375 65.166664Q450.5 64.104164 450.5 61.68229ZM451.57812 61.68229Q451.57812 63.791664 452.07812 64.49479Q452.57812 65.197914 453.29688 65.197914Q454.03125 65.197914 454.51562 64.49479Q455.01562 63.791664 455.01562 61.68229Q455.01562 59.55729 454.51562 58.86979Q454.03125 58.166664 453.28125 58.166664Q452.5625 58.166664 452.125 58.77604Q451.57812 59.55729 451.57812 61.68229ZM457.5 61.68229Q457.5 60.15104 457.8125 59.229164Q458.125 58.291664 458.73438 57.791664Q459.35938 57.291664 460.29688 57.291664Q460.98438 57.291664 461.5 57.572914Q462.03125 57.854164 462.375 58.385414Q462.71875 58.90104 462.90625 59.65104Q463.09375 60.40104 463.09375 61.68229Q463.09375 63.197914 462.78125 64.11979Q462.48438 65.041664 461.85938 65.55729Q461.25 66.05729 460.29688 66.05729Q459.0625 66.05729 458.34375 65.166664Q457.5 64.104164 457.5 61.68229ZM458.57812 61.68229Q458.57812 63.791664 459.07812 64.49479Q459.57812 65.197914 460.29688 65.197914Q461.03125 65.197914 461.51562 64.49479Q462.01562 63.791664 462.01562 61.68229Q462.01562 59.55729 461.51562 58.86979Q461.03125 58.166664 460.28125 58.166664Q459.5625 58.166664 459.125 58.77604Q458.57812 59.55729 458.57812 61.68229ZM464.5 61.68229Q464.5 60.15104 464.8125 59.229164Q465.125 58.291664 465.73438 57.791664Q466.35938 57.291664 467.29688 57.291664Q467.98438 57.291664 468.5 57.572914Q469.03125 57.854164 469.375 58.385414Q469.71875 58.90104 469.90625 59.65104Q470.09375 60.40104 470.09375 61.68229Q470.09375 63.197914 469.78125 64.11979Q469.48438 65.041664 468.85938 65.55729Q468.25 66.05729 467.29688 66.05729Q466.0625 66.05729 465.34375 65.166664Q464.5 64.104164 464.5 61.68229ZM465.57812 61.68229Q465.57812 63.791664 466.07812 64.49479Q466.57812 65.197914 467.29688 65.197914Q468.03125 65.197914 468.51562 64.49479Q469.01562 63.791664 469.01562 61.68229Q469.01562 59.55729 468.51562 58.86979Q468.03125 58.166664 467.28125 58.166664Q466.5625 58.166664 466.125 58.77604Q465.57812 59.55729 465.57812 61.68229ZM474.5 63.666664L475.60938 63.572914Q475.73438 64.385414 476.17188 64.791664Q476.625 65.197914 477.26562 65.197914Q478.01562 65.197914 478.54688 64.61979Q479.07812 64.041664 479.07812 63.104164Q479.07812 62.197914 478.5625 61.68229Q478.0625 61.15104 477.23438 61.15104Q476.73438 61.15104 476.3125 61.385414Q475.90625 61.61979 475.67188 61.979164L474.6875 61.854164L475.51562 57.447914L479.79688 57.447914L479.79688 58.447914L476.35938 58.447914L475.90625 60.760414Q476.67188 60.21354 477.51562 60.21354Q478.64062 60.21354 479.40625 60.99479Q480.1875 61.77604 480.1875 63.010414Q480.1875 64.166664 479.51562 65.02604Q478.6875 66.05729 477.26562 66.05729Q476.09375 66.05729 475.34375 65.40104Q474.60938 64.74479 474.5 63.666664ZM481.5625 58.447914L481.5625 57.43229L487.125 57.43229L487.125 58.260414Q486.3125 59.135414 485.5 60.58854Q484.70312 62.02604 484.26562 63.55729Q483.9375 64.635414 483.85938 65.916664L482.76562 65.916664Q482.78125 64.90104 483.15625 63.46354Q483.54688 62.02604 484.25 60.697914Q484.96875 59.36979 485.78125 58.447914L481.5625 58.447914ZM488.5 63.666664L489.60938 63.572914Q489.73438 64.385414 490.17188 64.791664Q490.625 65.197914 491.26562 65.197914Q492.01562 65.197914 492.54688 64.61979Q493.07812 64.041664 493.07812 63.104164Q493.07812 62.197914 492.5625 61.68229Q492.0625 61.15104 491.23438 61.15104Q490.73438 61.15104 490.3125 61.385414Q489.90625 61.61979 489.67188 61.979164L488.6875 61.854164L489.51562 57.447914L493.79688 57.447914L493.79688 58.447914L490.35938 58.447914L489.90625 60.760414Q490.67188 60.21354 491.51562 60.21354Q492.64062 60.21354 493.40625 60.99479Q494.1875 61.77604 494.1875 63.010414Q494.1875 64.166664 493.51562 65.02604Q492.6875 66.05729 491.26562 66.05729Q490.09375 66.05729 489.34375 65.40104Q488.60938 64.74479 488.5 63.666664ZM495.5 61.68229Q495.5 60.15104 495.8125 59.229164Q496.125 58.291664 496.73438 57.791664Q497.35938 57.291664 498.29688 57.291664Q498.98438 57.291664 499.5 57.572914Q500.03125 57.854164 500.375 58.385414Q500.71875 58.90104 500.90625 59.65104Q501.09375 60.40104 501.09375 61.68229Q501.09375 63.197914 500.78125 64.11979Q500.48438 65.041664 499.85938 65.55729Q499.25 66.05729 498.29688 66.05729Q497.0625 66.05729 496.34375 65.166664Q495.5 64.104164 495.5 61.68229ZM496.57812 61.68229Q496.57812 63.791664 497.07812 64.49479Q497.57812 65.197914 498.29688 65.197914Q499.03125 65.197914 499.51562 64.49479Q500.01562 63.791664 500.01562 61.68229Q500.01562 59.55729 499.51562 58.86979Q499.03125 58.166664 498.28125 58.166664Q497.5625 58.166664 497.125 58.77604Q496.57812 59.55729 496.57812 61.68229Z" fill-rule="nonzero"/><path fill="#757575" d="M19.45625 32.95625L21.2375 32.8Q21.3625 33.8625 21.815624 34.55Q22.284374 35.2375 23.253124 35.675Q24.2375 36.096874 25.471874 36.096874Q26.55 36.096874 27.378124 35.784374Q28.20625 35.45625 28.6125 34.89375Q29.01875 34.33125 29.01875 33.659374Q29.01875 32.9875 28.628124 32.4875Q28.2375 31.9875 27.346874 31.64375Q26.76875 31.409374 24.784374 30.940624Q22.815624 30.471874 22.034374 30.05Q21.003124 29.51875 20.503124 28.721874Q20.003124 27.925 20.003124 26.940624Q20.003124 25.846874 20.6125 24.909374Q21.221874 23.971874 22.409374 23.4875Q23.596874 22.9875 25.034374 22.9875Q26.628124 22.9875 27.846874 23.503124Q29.065624 24.01875 29.70625 25.01875Q30.3625 26.003124 30.409374 27.26875L28.596874 27.409374Q28.45625 26.05 27.6125 25.3625Q26.76875 24.659374 25.1125 24.659374Q23.39375 24.659374 22.596874 25.3Q21.815624 25.925 21.815624 26.8Q21.815624 27.58125 22.378124 28.08125Q22.925 28.58125 25.2375 29.096874Q27.55 29.6125 28.409374 30.003124Q29.659374 30.58125 30.253124 31.471874Q30.846874 32.346874 30.846874 33.503124Q30.846874 34.64375 30.190624 35.659374Q29.534374 36.675 28.3 37.2375Q27.08125 37.8 25.55 37.8Q23.6125 37.8 22.3 37.2375Q20.9875 36.659374 20.2375 35.51875Q19.4875 34.378124 19.45625 32.95625ZM36.70625 35.971874L36.95625 37.534374Q36.221874 37.690624 35.628124 37.690624Q34.675 37.690624 34.14375 37.39375Q33.628124 37.08125 33.409374 36.596874Q33.190624 36.096874 33.190624 34.51875L33.190624 28.55L31.909374 28.55L31.909374 27.175L33.190624 27.175L33.190624 24.6125L34.940624 23.55L34.940624 27.175L36.70625 27.175L36.70625 28.55L34.940624 28.55L34.940624 34.6125Q34.940624 35.3625 35.034374 35.58125Q35.128124 35.784374 35.33125 35.925Q35.55 36.05 35.940624 36.05Q36.221874 36.05 36.70625 35.971874ZM38.846874 37.55L38.846874 27.175L40.425 27.175L40.425 28.753124Q41.034374 27.64375 41.55 27.3Q42.065624 26.940624 42.675 26.940624Q43.565624 26.940624 44.4875 27.503124L43.878124 29.14375Q43.2375 28.753124 42.596874 28.753124Q42.01875 28.753124 41.55 29.1125Q41.096874 29.45625 40.89375 30.065624Q40.6125 31.003124 40.6125 32.1125L40.6125 37.55L38.846874 37.55ZM45.221874 32.3625Q45.221874 29.4875 46.815624 28.096874Q48.159374 26.940624 50.08125 26.940624Q52.221874 26.940624 53.565624 28.346874Q54.925 29.753124 54.925 32.221874Q54.925 34.221874 54.33125 35.378124Q53.7375 36.51875 52.58125 37.159374Q51.440624 37.784374 50.08125 37.784374Q47.89375 37.784374 46.55 36.39375Q45.221874 34.9875 45.221874 32.3625ZM47.01875 32.3625Q47.01875 34.3625 47.878124 35.346874Q48.753124 36.33125 50.08125 36.33125Q51.39375 36.33125 52.253124 35.346874Q53.128124 34.346874 53.128124 32.3Q53.128124 30.378124 52.253124 29.39375Q51.378124 28.39375 50.08125 28.39375Q48.753124 28.39375 47.878124 29.39375Q47.01875 30.378124 47.01875 32.3625ZM56.8625 37.55L56.8625 27.175L58.45625 27.175L58.45625 28.659374Q59.596874 26.940624 61.753124 26.940624Q62.690624 26.940624 63.471874 27.284374Q64.26875 27.6125 64.65938 28.159374Q65.05 28.70625 65.20625 29.45625Q65.3 29.95625 65.3 31.175L65.3 37.55L63.534374 37.55L63.534374 31.2375Q63.534374 30.159374 63.33125 29.628124Q63.128124 29.096874 62.596874 28.784374Q62.08125 28.471874 61.378124 28.471874Q60.253124 28.471874 59.440624 29.190624Q58.628124 29.89375 58.628124 31.878124L58.628124 37.55L56.8625 37.55ZM66.55 38.409374L68.25313 38.659374Q68.3625 39.45625 68.84688 39.815624Q69.50313 40.3 70.64375 40.3Q71.8625 40.3 72.51875 39.815624Q73.19063 39.33125 73.425 38.45625Q73.56563 37.909374 73.55 36.190624Q72.39375 37.55 70.675 37.55Q68.53438 37.55 67.3625 36.003124Q66.19063 34.45625 66.19063 32.3Q66.19063 30.815624 66.72188 29.565624Q67.26875 28.315624 68.28438 27.628124Q69.31563 26.940624 70.69063 26.940624Q72.51875 26.940624 73.72188 28.425L73.72188 27.175L75.33125 27.175L75.33125 36.14375Q75.33125 38.565624 74.83125 39.565624Q74.34688 40.58125 73.26875 41.159374Q72.20625 41.753124 70.64375 41.753124Q68.8 41.753124 67.64375 40.925Q66.50313 40.096874 66.55 38.409374ZM68.00313 32.175Q68.00313 34.221874 68.81563 35.159374Q69.62813 36.096874 70.84688 36.096874Q72.05 36.096874 72.8625 35.159374Q73.69063 34.221874 73.69063 32.2375Q73.69063 30.33125 72.84688 29.3625Q72.00313 28.39375 70.81563 28.39375Q69.64375 28.39375 68.81563 29.346874Q68.00313 30.3 68.00313 32.175ZM83.15938 34.45625L84.90938 34.175Q85.05 35.221874 85.72188 35.784374Q86.39375 36.33125 87.59688 36.33125Q88.8 36.33125 89.37813 35.846874Q89.97188 35.346874 89.97188 34.690624Q89.97188 34.096874 89.45625 33.753124Q89.09688 33.51875 87.65938 33.159374Q85.72188 32.659374 84.97188 32.315624Q84.2375 31.95625 83.84688 31.33125Q83.45625 30.690624 83.45625 29.925Q83.45625 29.2375 83.76875 28.64375Q84.09688 28.05 84.64375 27.659374Q85.05 27.3625 85.75313 27.159374Q86.47188 26.940624 87.28438 26.940624Q88.50313 26.940624 89.425 27.3Q90.34688 27.64375 90.78438 28.253124Q91.22188 28.846874 91.39375 29.846874L89.675 30.08125Q89.55 29.284374 88.9875 28.846874Q88.425 28.39375 87.40938 28.39375Q86.19063 28.39375 85.675 28.8Q85.15938 29.190624 85.15938 29.721874Q85.15938 30.065624 85.37813 30.346874Q85.58125 30.628124 86.05 30.815624Q86.31563 30.909374 87.59688 31.253124Q89.47188 31.753124 90.20625 32.08125Q90.94063 32.39375 91.3625 33.003124Q91.78438 33.596874 91.78438 34.503124Q91.78438 35.378124 91.26875 36.159374Q90.75313 36.940624 89.78438 37.3625Q88.81563 37.784374 87.59688 37.784374Q85.58125 37.784374 84.51875 36.940624Q83.45625 36.096874 83.15938 34.45625ZM100.64375 33.753124L102.3625 33.971874Q102.08125 35.76875 100.90938 36.784374Q99.75313 37.784374 98.05 37.784374Q95.925 37.784374 94.62813 36.39375Q93.33125 35.003124 93.33125 32.409374Q93.33125 30.721874 93.87813 29.471874Q94.44063 28.20625 95.58125 27.58125Q96.72188 26.940624 98.06563 26.940624Q99.75313 26.940624 100.81563 27.8Q101.89375 28.659374 102.20625 30.221874L100.4875 30.4875Q100.25313 29.440624 99.62813 28.925Q99.00313 28.39375 98.12813 28.39375Q96.8 28.39375 95.97188 29.346874Q95.14375 30.3 95.14375 32.346874Q95.14375 34.440624 95.94063 35.39375Q96.7375 36.33125 98.03438 36.33125Q99.06563 36.33125 99.75313 35.70625Q100.45625 35.065624 100.64375 33.753124ZM110.64375 36.26875Q109.65938 37.096874 108.75313 37.440624Q107.84688 37.784374 106.81563 37.784374Q105.1125 37.784374 104.19063 36.95625Q103.26875 36.1125 103.26875 34.815624Q103.26875 34.05 103.6125 33.425Q103.97188 32.8 104.53438 32.425Q105.09688 32.034374 105.8 31.83125Q106.31563 31.70625 107.3625 31.565624Q109.4875 31.315624 110.4875 30.971874Q110.50313 30.6125 110.50313 30.503124Q110.50313 29.440624 110.00313 28.9875Q109.33125 28.39375 108.00313 28.39375Q106.75313 28.39375 106.15938 28.83125Q105.58125 29.26875 105.3 30.378124L103.58125 30.14375Q103.81563 29.034374 104.34688 28.3625Q104.87813 27.675 105.89375 27.315624Q106.90938 26.940624 108.25313 26.940624Q109.58125 26.940624 110.40938 27.253124Q111.2375 27.565624 111.62813 28.05Q112.01875 28.51875 112.175 29.2375Q112.26875 29.690624 112.26875 30.8625L112.26875 33.20625Q112.26875 35.659374 112.37813 36.315624Q112.4875 36.95625 112.83125 37.55L110.9875 37.55Q110.72188 37.003124 110.64375 36.26875ZM110.4875 32.346874Q109.53438 32.7375 107.6125 33.003124Q106.53438 33.159374 106.08125 33.3625Q105.64375 33.55 105.39375 33.925Q105.14375 34.3 105.14375 34.76875Q105.14375 35.471874 105.675 35.940624Q106.20625 36.409374 107.2375 36.409374Q108.25313 36.409374 109.03438 35.971874Q109.83125 35.51875 110.20625 34.753124Q110.4875 34.14375 110.4875 32.9875L110.4875 32.346874ZM114.83125 37.55L114.83125 23.2375L116.58125 23.2375L116.58125 37.55L114.83125 37.55ZM118.87813 25.253124L118.87813 23.2375L120.64375 23.2375L120.64375 25.253124L118.87813 25.253124ZM118.87813 37.55L118.87813 27.175L120.64375 27.175L120.64375 37.55L118.87813 37.55ZM122.8625 37.55L122.8625 27.175L124.45625 27.175L124.45625 28.659374Q125.59688 26.940624 127.75313 26.940624Q128.69063 26.940624 129.47188 27.284374Q130.26875 27.6125 130.65938 28.159374Q131.05 28.70625 131.20625 29.45625Q131.3 29.95625 131.3 31.175L131.3 37.55L129.53438 37.55L129.53438 31.2375Q129.53438 30.159374 129.33125 29.628124Q129.12813 29.096874 128.59688 28.784374Q128.08125 28.471874 127.37813 28.471874Q126.25313 28.471874 125.44063 29.190624Q124.62813 29.89375 124.62813 31.878124L124.62813 37.55L122.8625 37.55ZM132.55 38.409374L134.25313 38.659374Q134.3625 39.45625 134.84688 39.815624Q135.50313 40.3 136.64375 40.3Q137.8625 40.3 138.51875 39.815624Q139.19063 39.33125 139.425 38.45625Q139.56563 37.909374 139.55 36.190624Q138.39375 37.55 136.675 37.55Q134.53438 37.55 133.3625 36.003124Q132.19063 34.45625 132.19063 32.3Q132.19063 30.815624 132.72188 29.565624Q133.26875 28.315624 134.28438 27.628124Q135.31563 26.940624 136.69063 26.940624Q138.51875 26.940624 139.72188 28.425L139.72188 27.175L141.33125 27.175L141.33125 36.14375Q141.33125 38.565624 140.83125 39.565624Q140.34688 40.58125 139.26875 41.159374Q138.20625 41.753124 136.64375 41.753124Q134.8 41.753124 133.64375 40.925Q132.50313 40.096874 132.55 38.409374ZM134.00313 32.175Q134.00313 34.221874 134.81563 35.159374Q135.62813 36.096874 136.84688 36.096874Q138.05 36.096874 138.8625 35.159374Q139.69063 34.221874 139.69063 32.2375Q139.69063 30.33125 138.84688 29.3625Q138.00313 28.39375 136.81563 28.39375Q135.64375 28.39375 134.81563 29.346874Q134.00313 30.3 134.00313 32.175ZM156.64375 36.26875Q155.65938 37.096874 154.75313 37.440624Q153.84688 37.784374 152.81563 37.784374Q151.1125 37.784374 150.19063 36.95625Q149.26875 36.1125 149.26875 34.815624Q149.26875 34.05 149.6125 33.425Q149.97188 32.8 150.53438 32.425Q151.09688 32.034374 151.8 31.83125Q152.31563 31.70625 153.3625 31.565624Q155.4875 31.315624 156.4875 30.971874Q156.50313 30.6125 156.50313 30.503124Q156.50313 29.440624 156.00313 28.9875Q155.33125 28.39375 154.00313 28.39375Q152.75313 28.39375 152.15938 28.83125Q151.58125 29.26875 151.3 30.378124L149.58125 30.14375Q149.81563 29.034374 150.34688 28.3625Q150.87813 27.675 151.89375 27.315624Q152.90938 26.940624 154.25313 26.940624Q155.58125 26.940624 156.40938 27.253124Q157.2375 27.565624 157.62813 28.05Q158.01875 28.51875 158.175 29.2375Q158.26875 29.690624 158.26875 30.8625L158.26875 33.20625Q158.26875 35.659374 158.37813 36.315624Q158.4875 36.95625 158.83125 37.55L156.9875 37.55Q156.72188 37.003124 156.64375 36.26875ZM156.4875 32.346874Q155.53438 32.7375 153.6125 33.003124Q152.53438 33.159374 152.08125 33.3625Q151.64375 33.55 151.39375 33.925Q151.14375 34.3 151.14375 34.76875Q151.14375 35.471874 151.675 35.940624Q152.20625 36.409374 153.2375 36.409374Q154.25313 36.409374 155.03438 35.971874Q155.83125 35.51875 156.20625 34.753124Q156.4875 34.14375 156.4875 32.9875L156.4875 32.346874ZM164.70625 35.971874L164.95625 37.534374Q164.22188 37.690624 163.62813 37.690624Q162.675 37.690624 162.14375 37.39375Q161.62813 37.08125 161.40938 36.596874Q161.19063 36.096874 161.19063 34.51875L161.19063 28.55L159.90938 28.55L159.90938 27.175L161.19063 27.175L161.19063 24.6125L162.94063 23.55L162.94063 27.175L164.70625 27.175L164.70625 28.55L162.94063 28.55L162.94063 34.6125Q162.94063 35.3625 163.03438 35.58125Q163.12813 35.784374 163.33125 35.925Q163.55 36.05 163.94063 36.05Q164.22188 36.05 164.70625 35.971874ZM172.37813 30.4875Q172.37813 27.95625 172.89375 26.409374Q173.425 24.846874 174.45625 24.01875Q175.4875 23.175 177.05 23.175Q178.20625 23.175 179.06563 23.64375Q179.94063 24.096874 180.50313 24.971874Q181.06563 25.846874 181.39375 27.1125Q181.72188 28.3625 181.72188 30.4875Q181.72188 33.003124 181.19063 34.55Q180.675 36.096874 179.64375 36.95625Q178.62813 37.8 177.05 37.8Q174.97188 37.8 173.8 36.315624Q172.37813 34.51875 172.37813 30.4875ZM174.19063 30.4875Q174.19063 34.01875 175.00313 35.190624Q175.83125 36.346874 177.05 36.346874Q178.25313 36.346874 179.08125 35.175Q179.90938 34.003124 179.90938 30.4875Q179.90938 26.95625 179.08125 25.8Q178.25313 24.628124 177.03438 24.628124Q175.81563 24.628124 175.09688 25.659374Q174.19063 26.95625 174.19063 30.4875ZM184.3625 37.55L184.3625 35.55L186.3625 35.55L186.3625 37.55L184.3625 37.55ZM189.37813 30.4875Q189.37813 27.95625 189.89375 26.409374Q190.425 24.846874 191.45625 24.01875Q192.4875 23.175 194.05 23.175Q195.20625 23.175 196.06563 23.64375Q196.94063 24.096874 197.50313 24.971874Q198.06563 25.846874 198.39375 27.1125Q198.72188 28.3625 198.72188 30.4875Q198.72188 33.003124 198.19063 34.55Q197.675 36.096874 196.64375 36.95625Q195.62813 37.8 194.05 37.8Q191.97188 37.8 190.8 36.315624Q189.37813 34.51875 189.37813 30.4875ZM191.19063 30.4875Q191.19063 34.01875 192.00313 35.190624Q192.83125 36.346874 194.05 36.346874Q195.25313 36.346874 196.08125 35.175Q196.90938 34.003124 196.90938 30.4875Q196.90938 26.95625 196.08125 25.8Q195.25313 24.628124 194.03438 24.628124Q192.81563 24.628124 192.09688 25.659374Q191.19063 26.95625 191.19063 30.4875ZM207.00313 37.55L205.2375 37.55L205.2375 26.346874Q204.6125 26.95625 203.58125 27.565624Q202.55 28.159374 201.72188 28.471874L201.72188 26.76875Q203.20625 26.08125 204.3 25.096874Q205.40938 24.096874 205.8625 23.175L207.00313 23.175L207.00313 37.55ZM218.28438 37.55L218.28438 28.55L216.7375 28.55L216.7375 27.175L218.28438 27.175L218.28438 26.08125Q218.28438 25.034374 218.47188 24.51875Q218.72188 23.83125 219.3625 23.409374Q220.00313 22.9875 221.15938 22.9875Q221.90938 22.9875 222.8 23.159374L222.53438 24.690624Q221.9875 24.596874 221.50313 24.596874Q220.70625 24.596874 220.3625 24.940624Q220.03438 25.284374 220.03438 26.221874L220.03438 27.175L222.06563 27.175L222.06563 28.55L220.03438 28.55L220.03438 37.55L218.28438 37.55ZM223.87813 25.253124L223.87813 23.2375L225.64375 23.2375L225.64375 25.253124L223.87813 25.253124ZM223.87813 37.55L223.87813 27.175L225.64375 27.175L225.64375 37.55L223.87813 37.55ZM227.83125 37.55L227.83125 23.2375L229.58125 23.2375L229.58125 37.55L227.83125 37.55ZM231.83125 37.55L231.83125 23.2375L233.58125 23.2375L233.58125 37.55L231.83125 37.55ZM242.28438 37.55L242.28438 28.55L240.7375 28.55L240.7375 27.175L242.28438 27.175L242.28438 26.08125Q242.28438 25.034374 242.47188 24.51875Q242.72188 23.83125 243.3625 23.409374Q244.00313 22.9875 245.15938 22.9875Q245.90938 22.9875 246.8 23.159374L246.53438 24.690624Q245.9875 24.596874 245.50313 24.596874Q244.70625 24.596874 244.3625 24.940624Q244.03438 25.284374 244.03438 26.221874L244.03438 27.175L246.06563 27.175L246.06563 28.55L244.03438 28.55L244.03438 37.55L242.28438 37.55ZM254.64375 36.26875Q253.65938 37.096874 252.75313 37.440624Q251.84688 37.784374 250.81563 37.784374Q249.1125 37.784374 248.19063 36.95625Q247.26875 36.1125 247.26875 34.815624Q247.26875 34.05 247.6125 33.425Q247.97188 32.8 248.53438 32.425Q249.09688 32.034374 249.8 31.83125Q250.31563 31.70625 251.3625 31.565624Q253.4875 31.315624 254.4875 30.971874Q254.50313 30.6125 254.50313 30.503124Q254.50313 29.440624 254.00313 28.9875Q253.33125 28.39375 252.00313 28.39375Q250.75313 28.39375 250.15938 28.83125Q249.58125 29.26875 249.3 30.378124L247.58125 30.14375Q247.81563 29.034374 248.34688 28.3625Q248.87813 27.675 249.89375 27.315624Q250.90938 26.940624 252.25313 26.940624Q253.58125 26.940624 254.40938 27.253124Q255.2375 27.565624 255.62813 28.05Q256.01874 28.51875 256.175 29.2375Q256.26874 29.690624 256.26874 30.8625L256.26874 33.20625Q256.26874 35.659374 256.3781 36.315624Q256.4875 36.95625 256.83124 37.55L254.9875 37.55Q254.72188 37.003124 254.64375 36.26875ZM254.4875 32.346874Q253.53438 32.7375 251.6125 33.003124Q250.53438 33.159374 250.08125 33.3625Q249.64375 33.55 249.39375 33.925Q249.14375 34.3 249.14375 34.76875Q249.14375 35.471874 249.675 35.940624Q250.20625 36.409374 251.2375 36.409374Q252.25313 36.409374 253.03438 35.971874Q253.83125 35.51875 254.20625 34.753124Q254.4875 34.14375 254.4875 32.9875L254.4875 32.346874ZM265.64374 33.753124L267.3625 33.971874Q267.08124 35.76875 265.90936 36.784374Q264.7531 37.784374 263.05 37.784374Q260.925 37.784374 259.6281 36.39375Q258.33124 35.003124 258.33124 32.409374Q258.33124 30.721874 258.8781 29.471874Q259.4406 28.20625 260.58124 27.58125Q261.72186 26.940624 263.0656 26.940624Q264.7531 26.940624 265.8156 27.8Q266.89374 28.659374 267.20624 30.221874L265.4875 30.4875Q265.2531 29.440624 264.6281 28.925Q264.0031 28.39375 263.1281 28.39375Q261.8 28.39375 260.97186 29.346874Q260.14374 30.3 260.14374 32.346874Q260.14374 34.440624 260.9406 35.39375Q261.7375 36.33125 263.03436 36.33125Q264.0656 36.33125 264.7531 35.70625Q265.45624 35.065624 265.64374 33.753124ZM272.70624 35.971874L272.95624 37.534374Q272.22186 37.690624 271.6281 37.690624Q270.675 37.690624 270.14374 37.39375Q269.6281 37.08125 269.40936 36.596874Q269.1906 36.096874 269.1906 34.51875L269.1906 28.55L267.90936 28.55L267.90936 27.175L269.1906 27.175L269.1906 24.6125L270.9406 23.55L270.9406 27.175L272.70624 27.175L272.70624 28.55L270.9406 28.55L270.9406 34.6125Q270.9406 35.3625 271.03436 35.58125Q271.1281 35.784374 271.33124 35.925Q271.55 36.05 271.9406 36.05Q272.22186 36.05 272.70624 35.971874ZM274.22186 32.3625Q274.22186 29.4875 275.8156 28.096874Q277.15936 26.940624 279.08124 26.940624Q281.22186 26.940624 282.5656 28.346874Q283.925 29.753124 283.925 32.221874Q283.925 34.221874 283.33124 35.378124Q282.7375 36.51875 281.58124 37.159374Q280.4406 37.784374 279.08124 37.784374Q276.89374 37.784374 275.55 36.39375Q274.22186 34.9875 274.22186 32.3625ZM276.01874 32.3625Q276.01874 34.3625 276.8781 35.346874Q277.7531 36.33125 279.08124 36.33125Q280.39374 36.33125 281.2531 35.346874Q282.1281 34.346874 282.1281 32.3Q282.1281 30.378124 281.2531 29.39375Q280.3781 28.39375 279.08124 28.39375Q277.7531 28.39375 276.8781 29.39375Q276.01874 30.378124 276.01874 32.3625ZM285.84686 37.55L285.84686 27.175L287.425 27.175L287.425 28.753124Q288.03436 27.64375 288.55 27.3Q289.0656 26.940624 289.675 26.940624Q290.5656 26.940624 291.4875 27.503124L290.8781 29.14375Q290.2375 28.753124 289.59686 28.753124Q289.01874 28.753124 288.55 29.1125Q288.09686 29.45625 287.89374 30.065624Q287.6125 31.003124 287.6125 32.1125L287.6125 37.55L285.84686 37.55Z" fill-rule="nonzero"/></svg>